400.ufo
<glyph name="percent" format="2">
  <advance width="751"/>
  <unicode hex="0025"/>
  <outline>
    <contour>
      <point x="35" y="550" type="curve" smooth="yes"/>
      <point x="35" y="639"/>
      <point x="98" y="710"/>
      <point x="193" y="710" type="curve" smooth="yes"/>
      <point x="288" y="710"/>
      <point x="351" y="639"/>
      <point x="351" y="550" type="curve" smooth="yes"/>
      <point x="351" y="461"/>
      <point x="288" y="390"/>
      <point x="193" y="390" type="curve" smooth="yes"/>
      <point x="98" y="390"/>
      <point x="35" y="461"/>
    </contour>
    <contour>
      <point x="106" y="550" type="curve" smooth="yes"/>
      <point x="106" y="499"/>
      <point x="138" y="455"/>
      <point x="193" y="455" type="curve" smooth="yes"/>
      <point x="248" y="455"/>
      <point x="280" y="499"/>
      <point x="280" y="550" type="curve" smooth="yes"/>
      <point x="280" y="601"/>
      <point x="248" y="645"/>
      <point x="193" y="645" type="curve" smooth="yes"/>
      <point x="138" y="645"/>
      <point x="106" y="601"/>
    </contour>
    <contour>
      <point x="400" y="150" type="curve" smooth="yes"/>
      <point x="400" y="239"/>
      <point x="463" y="310"/>
      <point x="558" y="310" type="curve" smooth="yes"/>
      <point x="653" y="310"/>
      <point x="716" y="239"/>
      <point x="716" y="150" type="curve" smooth="yes"/>
      <point x="716" y="61"/>
      <point x="653" y="-10"/>
      <point x="558" y="-10" type="curve" smooth="yes"/>
      <point x="463" y="-10"/>
      <point x="400" y="61"/>
    </contour>
    <contour>
      <point x="471" y="150" type="curve" smooth="yes"/>
      <point x="471" y="99"/>
      <point x="503" y="55"/>
      <point x="558" y="55" type="curve" smooth="yes"/>
      <point x="613" y="55"/>
      <point x="645" y="99"/>
      <point x="645" y="150" type="curve" smooth="yes"/>
      <point x="645" y="201"/>
      <point x="613" y="245"/>
      <point x="558" y="245" type="curve" smooth="yes"/>
      <point x="503" y="245"/>
      <point x="471" y="201"/>
    </contour>
    <contour>
      <point x="563" y="700" type="line"/>
      <point x="638" y="700" type="line"/>
      <point x="188" y="0" type="line"/>
      <point x="113" y="0" type="line"/>
    </contour>
  </outline>
</glyph>
<glyph name="plus" format="2">
  <advance width="615"/>
  <unicode hex="002B"/>
  <outline>
    <contour>
      <point x="65" y="215" type="line"/>
      <point x="65" y="295" type="line"/>
      <point x="550" y="295" type="line"/>
      <point x="550" y="215" type="line"/>
    </contour>
    <contour>
      <point x="265" y="500" type="line"/>
      <point x="350" y="500" type="line"/>
      <point x="350" y="10" type="line"/>
      <point x="265" y="10" type="line"/>
    </contour>
  </outline>
</glyph>
<glyph name="three" format="2">
  <advance width="546"/>
  <unicode hex="0033"/>
  <outline>
    <contour>
      <point x="253" y="345" type="curve"/>
      <point x="253" y="400" type="line"/>
      <point x="343" y="400"/>
      <point x="394" y="455"/>
      <point x="394" y="521" type="curve" smooth="yes"/>
      <point x="394" y="587"/>
      <point x="358" y="633"/>
      <point x="288" y="633" type="curve" smooth="yes"/>
      <point x="223" y="633"/>
      <point x="171" y="587"/>
      <point x="171" y="526" type="curve"/>
      <point x="90" y="526" type="line"/>
      <point x="90" y="635"/>
      <point x="172" y="710"/>
      <point x="287" y="710" type="curve" smooth="yes"/>
      <point x="407" y="710"/>
      <point x="481" y="623"/>
      <point x="481" y="524" type="curve" smooth="yes"/>
      <point x="481" y="425"/>
      <point x="388" y="345"/>
    </contour>
    <contour>
      <point x="283" y="-10" type="curve" smooth="yes"/>
      <point x="148" y="-10"/>
      <point x="60" y="76"/>
      <point x="60" y="185" type="curve"/>
      <point x="146" y="185" type="line"/>
      <point x="146" y="119"/>
      <point x="203" y="70"/>
      <point x="283" y="70" type="curve" smooth="yes"/>
      <point x="363" y="70"/>
      <point x="414" y="119"/>
      <point x="414" y="195" type="curve" smooth="yes"/>
      <point x="414" y="281"/>
      <point x="343" y="325"/>
      <point x="253" y="325" type="curve"/>
      <point x="253" y="380" type="line"/>
      <point x="388" y="380"/>
      <point x="501" y="324"/>
      <point x="501" y="185" type="curve" smooth="yes"/>
      <point x="501" y="66"/>
      <point x="408" y="-10"/>
    </contour>
  </outline>
</glyph>
<glyph name="B" format="2">
  <advance width="558"/>
  <unicode hex="0042"/>
  <outline>
    <contour>
      <point x="147" y="370" type="line"/>
      <point x="147" y="417" type="line"/>
      <point x="260" y="417" type="line" smooth="yes"/>
      <point x="330" y="417"/>
      <point x="383" y="454"/>
      <point x="383" y="520" type="curve" smooth="yes"/>
      <point x="383" y="586"/>
      <point x="330" y="625"/>
      <point x="260" y="625" type="curve" smooth="yes"/>
      <point x="165" y="625" type="line"/>
      <point x="165" y="75" type="line"/>
      <point x="270" y="75" type="line" smooth="yes"/>
      <point x="360" y="75"/>
      <point x="423" y="124"/>
      <point x="423" y="210" type="curve" smooth="yes"/>
      <point x="423" y="296"/>
      <point x="360" y="343"/>
      <point x="270" y="343" type="curve" smooth="yes"/>
      <point x="147" y="343" type="line"/>
      <point x="147" y="390" type="line"/>
      <point x="270" y="390" type="line" smooth="yes"/>
      <point x="405" y="390"/>
      <point x="508" y="334"/>
      <point x="508" y="205" type="curve" smooth="yes"/>
      <point x="508" y="66"/>
      <point x="405" y="0"/>
      <point x="270" y="0" type="curve" smooth="yes"/>
      <point x="80" y="0" type="line"/>
      <point x="80" y="700" type="line"/>
      <point x="260" y="700" type="line" smooth="yes"/>
      <point x="385" y="700"/>
      <point x="468" y="644"/>
      <point x="468" y="525" type="curve" smooth="yes"/>
      <point x="468" y="426"/>
      <point x="385" y="370"/>
      <point x="260" y="370" type="curve" smooth="yes"/>
    </contour>
  </outline>
</glyph>
<glyph name="S" format="2">
  <advance width="548"/>
  <unicode hex="0053"/>
  <outline>
    <contour>
      <point x="106" y="212" type="line"/>
      <point x="153" y="127"/>
      <point x="207" y="70"/>
      <point x="291" y="70" type="curve" smooth="yes"/>
      <point x="366" y="70"/>
      <point x="415" y="116"/>
      <point x="415" y="180" type="curve" smooth="yes"/>
      <point x="415" y="274"/>
      <point x="340" y="303"/>
      <point x="260" y="332" type="curve" smooth="yes"/>
      <point x="190" y="357"/>
      <point x="75" y="402"/>
      <point x="75" y="529" type="curve" smooth="yes"/>
      <point x="75" y="633"/>
      <point x="159" y="710"/>
      <point x="278" y="710" type="curve" smooth="yes"/>
      <point x="391" y="710"/>
      <point x="462" y="636"/>
      <point x="497" y="563" type="curve"/>
      <point x="424" y="521" type="line"/>
      <point x="397" y="573"/>
      <point x="355" y="629"/>
      <point x="273" y="629" type="curve" smooth="yes"/>
      <point x="197" y="629"/>
      <point x="164" y="585"/>
      <point x="164" y="540" type="curve" smooth="yes"/>
      <point x="164" y="481"/>
      <point x="203" y="440"/>
      <point x="326" y="398" type="curve" smooth="yes"/>
      <point x="401" y="372"/>
      <point x="503" y="317"/>
      <point x="503" y="190" type="curve" smooth="yes"/>
      <point x="503" y="68"/>
      <point x="399" y="-10"/>
      <point x="288" y="-10" type="curve" smooth="yes"/>
      <point x="174" y="-10"/>
      <point x="83" y="73"/>
      <point x="38" y="166" type="curve"/>
    </contour>
  </outline>
</glyph>
<glyph name="Y" format="2">
  <advance width="561"/>
  <unicode hex="0059"/>
  <outline>
    <contour>
      <point x="461" y="700" type="line"/>
      <point x="556" y="700" type="line"/>
      <point x="323" y="302" type="line"/>
      <point x="323" y="0" type="line"/>
      <point x="238" y="0" type="line"/>
      <point x="238" y="301" type="line"/>
      <point x="5" y="700" type="line"/>
      <point x="100" y="700" type="line"/>
      <point x="280" y="376" type="line"/>
    </contour>
  </outline>
</glyph>
<glyph name="a" format="2">
  <advance width="481"/>
  <unicode hex="0061"/>
  <outline>
    <contour>
      <point x="111" y="142" type="curve" smooth="yes"/>
      <point x="111" y="89"/>
      <point x="151" y="59"/>
      <point x="210" y="59" type="curve" smooth="yes"/>
      <point x="283" y="59"/>
      <point x="341" y="107"/>
      <point x="341" y="180" type="curve"/>
      <point x="357" y="120" type="line"/>
      <point x="357" y="32"/>
      <point x="264" y="-10"/>
      <point x="189" y="-10" type="curve" smooth="yes"/>
      <point x="104" y="-10"/>
      <point x="30" y="44"/>
      <point x="30" y="138" type="curve" smooth="yes"/>
      <point x="30" y="227"/>
      <point x="97" y="286"/>
      <point x="210" y="286" type="curve" smooth="yes"/>
      <point x="309" y="286"/>
      <point x="359" y="242"/>
      <point x="374" y="225" type="curve"/>
      <point x="374" y="178" type="line"/>
      <point x="327" y="210"/>
      <point x="279" y="223"/>
      <point x="223" y="223" type="curve" smooth="yes"/>
      <point x="145" y="223"/>
      <point x="111" y="192"/>
    </contour>
    <contour>
      <point x="99" y="354" type="curve"/>
      <point x="60" y="413" type="line"/>
      <point x="95" y="438"/>
      <point x="156" y="470"/>
      <point x="241" y="470" type="curve" smooth="yes"/>
      <point x="348" y="470"/>
      <point x="421" y="419"/>
      <point x="421" y="330" type="curve" smooth="yes"/>
      <point x="421" y="0" type="line"/>
      <point x="341" y="0" type="line"/>
      <point x="341" y="319" type="line" smooth="yes"/>
      <point x="341" y="382"/>
      <point x="294" y="400"/>
      <point x="237" y="400" type="curve" smooth="yes"/>
      <point x="168" y="400"/>
      <point x="120" y="370"/>
    </contour>
  </outline>
</glyph>
<glyph name="e" format="2">
  <advance width="515"/>
  <unicode hex="0065"/>
  <outline>
    <contour>
      <point x="253" y="-10" type="curve" smooth="yes"/>
      <point x="124" y="-10"/>
      <point x="35" y="88"/>
      <point x="35" y="230" type="curve" smooth="yes"/>
      <point x="35" y="373"/>
      <point x="127" y="470"/>
      <point x="263" y="470" type="curve" smooth="yes"/>
      <point x="398" y="470"/>
      <point x="480" y="380"/>
      <point x="480" y="234" type="curve" smooth="yes"/>
      <point x="480" y="224"/>
      <point x="479" y="212"/>
      <point x="479" y="210" type="curve"/>
      <point x="86" y="210" type="line"/>
      <point x="86" y="278" type="line"/>
      <point x="416" y="278" type="line"/>
      <point x="384" y="232" type="line"/>
      <point x="388" y="238"/>
      <point x="393" y="256"/>
      <point x="393" y="265" type="curve" smooth="yes"/>
      <point x="393" y="346"/>
      <point x="341" y="400"/>
      <point x="263" y="400" type="curve" smooth="yes"/>
      <point x="171" y="400"/>
      <point x="117" y="340"/>
      <point x="116" y="235" type="curve" smooth="yes"/>
      <point x="115" y="127"/>
      <point x="169" y="65"/>
      <point x="263" y="65" type="curve" smooth="yes"/>
      <point x="325" y="65"/>
      <point x="373" y="92"/>
      <point x="407" y="148" type="curve"/>
      <point x="472" y="107" type="line"/>
      <point x="424" y="29"/>
      <point x="351" y="-10"/>
    </contour>
  </outline>
</glyph>
<glyph name="j" format="2">
  <advance width="250"/>
  <unicode hex="006A"/>
  <outline>
    <contour>
      <point x="62" y="650" type="curve" smooth="yes"/>
      <point x="62" y="680"/>
      <point x="86" y="704"/>
      <point x="116" y="704" type="curve" smooth="yes"/>
      <point x="146" y="704"/>
      <point x="170" y="680"/>
      <point x="170" y="650" type="curve" smooth="yes"/>
      <point x="170" y="620"/>
      <point x="146" y="596"/>
      <point x="116" y="596" type="curve" smooth="yes"/>
      <point x="86" y="596"/>
      <point x="62" y="620"/>
    </contour>
    <contour>
      <point x="-17" y="-114" type="line"/>
      <point x="-7" y="-130"/>
      <point x="11" y="-140"/>
      <point x="32" y="-140" type="curve" smooth="yes"/>
      <point x="66" y="-140"/>
      <point x="80" y="-114"/>
      <point x="80" y="-50" type="curve" smooth="yes"/>
      <point x="80" y="460" type="line"/>
      <point x="160" y="460" type="line"/>
      <point x="160" y="-60" type="line" smooth="yes"/>
      <point x="160" y="-161"/>
      <point x="111" y="-220"/>
      <point x="27" y="-220" type="curve" smooth="yes"/>
      <point x="-13" y="-220"/>
      <point x="-41" y="-207"/>
      <point x="-61" y="-180" type="curve"/>
    </contour>
  </outline>
</glyph>
<glyph name="n" format="2">
  <advance width="525"/>
  <unicode hex="006E"/>
  <outline>
    <contour>
      <point x="370" y="280" type="line" smooth="yes"/>
      <point x="370" y="356"/>
      <point x="336" y="395"/>
      <point x="272" y="395" type="curve" smooth="yes"/>
      <point x="202" y="395"/>
      <point x="155" y="348"/>
      <point x="155" y="280" type="curve" smooth="yes"/>
      <point x="155" y="0" type="line"/>
      <point x="75" y="0" type="line"/>
      <point x="75" y="460" type="line"/>
      <point x="155" y="460" type="line"/>
      <point x="155" y="388" type="line"/>
      <point x="186" y="444"/>
      <point x="232" y="470"/>
      <point x="292" y="470" type="curve" smooth="yes"/>
      <point x="389" y="470"/>
      <point x="450" y="401"/>
      <point x="450" y="290" type="curve" smooth="yes"/>
      <point x="450" y="0" type="line"/>
      <point x="370" y="0" type="line"/>
    </contour>
  </outline>
</glyph>
<glyph name="s" format="2">
  <advance width="403"/>
  <unicode hex="0073"/>
  <outline>
    <contour>
      <point x="94" y="141" type="line"/>
      <point x="122" y="98"/>
      <point x="162" y="63"/>
      <point x="219" y="63" type="curve" smooth="yes"/>
      <point x="264" y="63"/>
      <point x="292" y="85"/>
      <point x="292" y="121" type="curve" smooth="yes"/>
      <point x="292" y="169"/>
      <point x="239" y="191"/>
      <point x="186" y="211" type="curve" smooth="yes"/>
      <point x="125" y="234"/>
      <point x="54" y="268"/>
      <point x="54" y="349" type="curve" smooth="yes"/>
      <point x="54" y="431"/>
      <point x="128" y="470"/>
      <point x="203" y="470" type="curve" smooth="yes"/>
      <point x="276" y="470"/>
      <point x="341" y="431"/>
      <point x="369" y="380" type="curve"/>
      <point x="305" y="339" type="line"/>
      <point x="280" y="373"/>
      <point x="241" y="399"/>
      <point x="193" y="399" type="curve" smooth="yes"/>
      <point x="160" y="399"/>
      <point x="132" y="385"/>
      <point x="132" y="354" type="curve" smooth="yes"/>
      <point x="132" y="317"/>
      <point x="179" y="296"/>
      <point x="228" y="276" type="curve" smooth="yes"/>
      <point x="308" y="243"/>
      <point x="373" y="212"/>
      <point x="373" y="130" type="curve" smooth="yes"/>
      <point x="373" y="50"/>
      <point x="309" y="-10"/>
      <point x="215" y="-10" type="curve" smooth="yes"/>
      <point x="123" y="-10"/>
      <point x="56" y="47"/>
      <point x="31" y="102" type="curve"/>
    </contour>
  </outline>
</glyph>
<glyph name="v" format="2">
  <advance width="440"/>
  <unicode hex="0076"/>
  <outline>
    <contour>
      <point x="0" y="460" type="line"/>
      <point x="90" y="460" type="line"/>
      <point x="220" y="135" type="line"/>
      <point x="350" y="460" type="line"/>
      <point x="440" y="460" type="line"/>
      <point x="220" y="-35" type="line"/>
    </contour>
  </outline>
</glyph>
<glyph name="asciitilde" format="2">
  <advance width="575"/>
  <unicode hex="007E"/>
  <outline>
    <contour>
      <point x="142" y="176" type="curve"/>
      <point x="68" y="181" type="line"/>
      <point x="66" y="188"/>
      <point x="65" y="196"/>
      <point x="65" y="205" type="curve" smooth="yes"/>
      <point x="65" y="226"/>
      <point x="71" y="251"/>
      <point x="89" y="275" type="curve" smooth="yes"/>
      <point x="115" y="310"/>
      <point x="152" y="327"/>
      <point x="194" y="327" type="curve" smooth="yes"/>
      <point x="233" y="327"/>
      <point x="275" y="311"/>
      <point x="317" y="279" type="curve" smooth="yes"/>
      <point x="347" y="256"/>
      <point x="372" y="247"/>
      <point x="390" y="247" type="curve" smooth="yes"/>
      <point x="419" y="247"/>
      <point x="432" y="264"/>
      <point x="432" y="296" type="curve" smooth="yes"/>
      <point x="432" y="304"/>
      <point x="431" y="313"/>
      <point x="427" y="323" type="curve"/>
      <point x="506" y="318" type="line"/>
      <point x="508" y="310"/>
      <point x="510" y="300"/>
      <point x="510" y="290" type="curve" smooth="yes"/>
      <point x="510" y="270"/>
      <point x="505" y="242"/>
      <point x="488" y="219" type="curve" smooth="yes"/>
      <point x="462" y="185"/>
      <point x="430" y="172"/>
      <point x="394" y="172" type="curve" smooth="yes"/>
      <point x="360" y="172"/>
      <point x="322" y="188"/>
      <point x="279" y="220" type="curve" smooth="yes"/>
      <point x="249" y="243"/>
      <point x="218" y="253"/>
      <point x="193" y="253" type="curve" smooth="yes"/>
      <point x="157" y="253"/>
      <point x="138" y="233"/>
      <point x="138" y="198" type="curve" smooth="yes"/>
      <point x="138" y="191"/>
      <point x="139" y="184"/>
    </contour>
  </outline>
</glyph>
<glyph name="ordfeminine" format="2">
  <advance width="238"/>
  <unicode hex="00AA"/>
  <outline>
    <contour>
      <point x="61" y="532" type="curve" smooth="yes"/>
      <point x="61" y="510"/>
      <point x="73" y="491"/>
      <point x="110" y="491" type="curve" smooth="yes"/>
      <point x="145" y="491"/>
      <point x="178" y="507"/>
      <point x="178" y="550" type="curve"/>
      <point x="186" y="525" type="line"/>
      <point x="186" y="481"/>
      <point x="148" y="455"/>
      <point x="100" y="455" type="curve" smooth="yes"/>
      <point x="58" y="455"/>
      <point x="20" y="483"/>
      <point x="20" y="532" type="curve" smooth="yes"/>
      <point x="20" y="580"/>
      <point x="68" y="613"/>
      <point x="118" y="613" type="curve" smooth="yes"/>
      <point x="162" y="613"/>
      <point x="187" y="591"/>
      <point x="194" y="583" type="curve"/>
      <point x="194" y="559" type="line"/>
      <point x="172" y="575"/>
      <point x="149" y="583"/>
      <point x="120" y="583" type="curve" smooth="yes"/>
      <point x="84" y="583"/>
      <point x="61" y="560"/>
    </contour>
    <contour>
      <point x="61" y="646" type="curve"/>
      <point x="42" y="677" type="line"/>
      <point x="59" y="689"/>
      <point x="88" y="705"/>
      <point x="130" y="705" type="curve" smooth="yes"/>
      <point x="182" y="705"/>
      <point x="218" y="679"/>
      <point x="218" y="635" type="curve" smooth="yes"/>
      <point x="218" y="460" type="line"/>
      <point x="178" y="460" type="line"/>
      <point x="178" y="635" type="line" smooth="yes"/>
      <point x="178" y="658"/>
      <point x="155" y="670"/>
      <point x="130" y="670" type="curve" smooth="yes"/>
      <point x="97" y="670"/>
      <point x="72" y="654"/>
    </contour>
  </outline>
</glyph>
<glyph name="guillemotleft" format="2">
  <advance width="510"/>
  <unicode hex="00AB"/>
  <outline>
    <contour>
      <point x="290" y="259" type="line"/>
      <point x="440" y="65" type="line"/>
      <point x="390" y="20" type="line"/>
      <point x="200" y="255" type="line"/>
      <point x="390" y="490" type="line"/>
      <point x="440" y="445" type="line"/>
    </contour>
    <contour>
      <point x="130" y="259" type="line"/>
      <point x="280" y="65" type="line"/>
      <point x="230" y="20" type="line"/>
      <point x="40" y="255" type="line"/>
      <point x="230" y="490" type="line"/>
      <point x="280" y="445" type="line"/>
    </contour>
  </outline>
</glyph>
<glyph name="degree" format="2">
  <advance width="278"/>
  <unicode hex="00B0"/>
  <outline>
    <contour>
      <point x="20" y="600" type="curve" smooth="yes"/>
      <point x="20" y="670"/>
      <point x="71" y="720"/>
      <point x="139" y="720" type="curve" smooth="yes"/>
      <point x="207" y="720"/>
      <point x="258" y="670"/>
      <point x="258" y="600" type="curve" smooth="yes"/>
      <point x="258" y="530"/>
      <point x="207" y="480"/>
      <point x="139" y="480" type="curve" smooth="yes"/>
      <point x="71" y="480"/>
      <point x="20" y="530"/>
    </contour>
    <contour>
      <point x="60" y="600" type="curve" smooth="yes"/>
      <point x="60" y="552"/>
      <point x="94" y="518"/>
      <point x="139" y="518" type="curve" smooth="yes"/>
      <point x="184" y="518"/>
      <point x="218" y="552"/>
      <point x="218" y="600" type="curve" smooth="yes"/>
      <point x="218" y="648"/>
      <point x="184" y="682"/>
      <point x="139" y="682" type="curve" smooth="yes"/>
      <point x="94" y="682"/>
      <point x="60" y="648"/>
    </contour>
  </outline>
</glyph>
<glyph name="uni00B2" format="2">
  <advance width="346"/>
  <unicode hex="00B2"/>
  <outline>
    <contour>
      <point x="25" y="282" type="line"/>
      <point x="223" y="494" type="line" smooth="yes"/>
      <point x="251" y="523"/>
      <point x="267" y="552"/>
      <point x="267" y="586" type="curve" smooth="yes"/>
      <point x="267" y="623"/>
      <point x="242" y="661"/>
      <point x="191" y="661" type="curve" smooth="yes"/>
      <point x="137" y="661"/>
      <point x="100" y="622"/>
      <point x="100" y="558" type="curve"/>
      <point x="49" y="558" type="line"/>
      <point x="49" y="647"/>
      <point x="104" y="709"/>
      <point x="191" y="709" type="curve" smooth="yes"/>
      <point x="283" y="709"/>
      <point x="319" y="638"/>
      <point x="319" y="582" type="curve" smooth="yes"/>
      <point x="319" y="539"/>
      <point x="296" y="500"/>
      <point x="263" y="466" type="curve" smooth="yes"/>
      <point x="130" y="330" type="line"/>
      <point x="321" y="330" type="line"/>
      <point x="321" y="282" type="line"/>
    </contour>
  </outline>
</glyph>
<glyph name="Atilde" format="2">
  <advance width="660"/>
  <unicode hex="00C3"/>
  <outline>
    <contour>
      <point x="147" y="210" type="line"/>
      <point x="177" y="290" type="line"/>
      <point x="487" y="290" type="line"/>
      <point x="517" y="210" type="line"/>
    </contour>
    <contour>
      <point x="330" y="542" type="line"/>
      <point x="212" y="264" type="line"/>
      <point x="204" y="246" type="line"/>
      <point x="100" y="0" type="line"/>
      <point x="5" y="0" type="line"/>
      <point x="330" y="735" type="line"/>
      <point x="655" y="0" type="line"/>
      <point x="560" y="0" type="line"/>
      <point x="458" y="240" type="line"/>
      <point x="450" y="260" type="line"/>
    </contour>
    <contour>
      <point x="165" y="812" type="line"/>
      <point x="175" y="861"/>
      <point x="224" y="894"/>
      <point x="269" y="894" type="curve" smooth="yes"/>
      <point x="334" y="894"/>
      <point x="339" y="847"/>
      <point x="393" y="847" type="curve" smooth="yes"/>
      <point x="412" y="847"/>
      <point x="429" y="863"/>
      <point x="449" y="895" type="curve"/>
      <point x="495" y="852" type="line"/>
      <point x="479" y="815"/>
      <point x="439" y="779"/>
      <point x="389" y="779" type="curve" smooth="yes"/>
      <point x="334" y="779"/>
      <point x="313" y="826"/>
      <point x="268" y="826" type="curve" smooth="yes"/>
      <point x="227" y="826"/>
      <point x="218" y="790"/>
      <point x="218" y="775" type="curve"/>
    </contour>
  </outline>
</glyph>
<glyph name="Icircumflex" format="2">
  <advance width="245"/>
  <unicode hex="00CE"/>
  <outline>
    <contour>
      <point x="80" y="700" type="line"/>
      <point x="165" y="700" type="line"/>
      <point x="165" y="0" type="line"/>
      <point x="80" y="0" type="line"/>
    </contour>
    <contour>
      <point x="122" y="865" type="line"/>
      <point x="12" y="770" type="line"/>
      <point x="-38" y="810" type="line"/>
      <point x="122" y="950" type="line"/>
      <point x="282" y="810" type="line"/>
      <point x="232" y="770" type="line"/>
    </contour>
  </outline>
</glyph>
<glyph name="Eth" format="2">
  <advance width="680"/>
  <unicode hex="00D0"/>
  <outline>
    <contour>
      <point x="5" y="310" type="line"/>
      <point x="5" y="385" type="line"/>
      <point x="305" y="385" type="line"/>
      <point x="305" y="310" type="line"/>
    </contour>
    <contour>
      <point x="80" y="700" type="line"/>
      <point x="165" y="700" type="line"/>
      <point x="165" y="0" type="line"/>
      <point x="80" y="0" type="line"/>
    </contour>
    <contour>
      <point x="290" y="0" type="curve" smooth="yes"/>
      <point x="127" y="0" type="line"/>
      <point x="127" y="85" type="line"/>
      <point x="290" y="85" type="line" smooth="yes"/>
      <point x="448" y="85"/>
      <point x="555" y="187"/>
      <point x="555" y="350" type="curve" smooth="yes"/>
      <point x="555" y="513"/>
      <point x="448" y="615"/>
      <point x="290" y="615" type="curve" smooth="yes"/>
      <point x="127" y="615" type="line"/>
      <point x="127" y="700" type="line"/>
      <point x="290" y="700" type="line" smooth="yes"/>
      <point x="494" y="700"/>
      <point x="640" y="559"/>
      <point x="640" y="350" type="curve" smooth="yes"/>
      <point x="640" y="141"/>
      <point x="494" y="0"/>
    </contour>
  </outline>
</glyph>
<glyph name="germandbls" format="2">
  <advance width="565"/>
  <unicode hex="00DF"/>
  <outline>
    <contour>
      <point x="342" y="-12" type="curve" smooth="yes"/>
      <point x="280" y="-12"/>
      <point x="231" y="16"/>
      <point x="195" y="56" type="curve"/>
      <point x="244" y="116" type="line"/>
      <point x="274" y="85"/>
      <point x="309" y="64"/>
      <point x="348" y="64" type="curve" smooth="yes"/>
      <point x="408" y="64"/>
      <point x="452" y="113"/>
      <point x="452" y="171" type="curve" smooth="yes"/>
      <point x="452" y="283"/>
      <point x="282" y="288"/>
      <point x="282" y="402" type="curve" smooth="yes"/>
      <point x="282" y="496"/>
      <point x="396" y="531"/>
      <point x="396" y="635" type="curve" smooth="yes"/>
      <point x="396" y="700"/>
      <point x="342" y="721"/>
      <point x="283" y="721" type="curve" smooth="yes"/>
      <point x="207" y="721"/>
      <point x="152" y="682"/>
      <point x="152" y="588" type="curve" smooth="yes"/>
      <point x="153" y="-2" type="line"/>
      <point x="72" y="-2" type="line"/>
      <point x="72" y="608" type="line" smooth="yes"/>
      <point x="72" y="716"/>
      <point x="160" y="794"/>
      <point x="296" y="794" type="curve" smooth="yes"/>
      <point x="404" y="794"/>
      <point x="480" y="748"/>
      <point x="480" y="642" type="curve" smooth="yes"/>
      <point x="480" y="506"/>
      <point x="370" y="486"/>
      <point x="370" y="402" type="curve" smooth="yes"/>
      <point x="370" y="332"/>
      <point x="536" y="326"/>
      <point x="536" y="182" type="curve" smooth="yes"/>
      <point x="536" y="74"/>
      <point x="451" y="-12"/>
    </contour>
  </outline>
</glyph>
<glyph name="atilde" format="2">
  <advance width="485"/>
  <unicode hex="00E3"/>
  <outline>
    <contour>
      <point x="111" y="135" type="curve" smooth="yes"/>
      <point x="111" y="86"/>
      <point x="144" y="61"/>
      <point x="208" y="61" type="curve" smooth="yes"/>
      <point x="288" y="61"/>
      <point x="345" y="94"/>
      <point x="345" y="180" type="curve"/>
      <point x="361" y="130" type="line"/>
      <point x="361" y="41"/>
      <point x="283" y="-10"/>
      <point x="188" y="-10" type="curve" smooth="yes"/>
      <point x="93" y="-10"/>
      <point x="30" y="41"/>
      <point x="30" y="125" type="curve" smooth="yes"/>
      <point x="30" y="232"/>
      <point x="115" y="286"/>
      <point x="226" y="286" type="curve" smooth="yes"/>
      <point x="314" y="286"/>
      <point x="364" y="242"/>
      <point x="378" y="225" type="curve"/>
      <point x="378" y="178" type="line"/>
      <point x="333" y="210"/>
      <point x="288" y="225"/>
      <point x="230" y="225" type="curve" smooth="yes"/>
      <point x="149" y="225"/>
      <point x="111" y="191"/>
    </contour>
    <contour>
      <point x="111" y="352" type="curve"/>
      <point x="72" y="413" type="line"/>
      <point x="106" y="438"/>
      <point x="165" y="470"/>
      <point x="248" y="470" type="curve" smooth="yes"/>
      <point x="353" y="470"/>
      <point x="425" y="419"/>
      <point x="425" y="330" type="curve" smooth="yes"/>
      <point x="425" y="0" type="line"/>
      <point x="345" y="0" type="line"/>
      <point x="345" y="330" type="line" smooth="yes"/>
      <point x="345" y="376"/>
      <point x="298" y="400"/>
      <point x="248" y="400" type="curve" smooth="yes"/>
      <point x="182" y="400"/>
      <point x="133" y="368"/>
    </contour>
    <contour>
      <point x="83" y="567" type="line"/>
      <point x="93" y="616"/>
      <point x="142" y="649"/>
      <point x="187" y="649" type="curve" smooth="yes"/>
      <point x="252" y="649"/>
      <point x="257" y="602"/>
      <point x="311" y="602" type="curve" smooth="yes"/>
      <point x="330" y="602"/>
      <point x="347" y="618"/>
      <point x="367" y="650" type="curve"/>
      <point x="413" y="607" type="line"/>
      <point x="397" y="570"/>
      <point x="357" y="534"/>
      <point x="307" y="534" type="curve" smooth="yes"/>
      <point x="252" y="534"/>
      <point x="231" y="581"/>
      <point x="186" y="581" type="curve" smooth="yes"/>
      <point x="145" y="581"/>
      <point x="136" y="545"/>
      <point x="136" y="530" type="curve"/>
    </contour>
  </outline>
</glyph>
<glyph name="adieresis" format="2">
  <advance width="485"/>
  <unicode hex="00E4"/>
  <outline>
    <contour>
      <point x="111" y="135" type="curve" smooth="yes"/>
      <point x="111" y="86"/>
      <point x="144" y="61"/>
      <point x="208" y="61" type="curve" smooth="yes"/>
      <point x="288" y="61"/>
      <point x="345" y="94"/>
      <point x="345" y="180" type="curve"/>
      <point x="361" y="130" type="line"/>
      <point x="361" y="41"/>
      <point x="283" y="-10"/>
      <point x="188" y="-10" type="curve" smooth="yes"/>
      <point x="93" y="-10"/>
      <point x="30" y="41"/>
      <point x="30" y="125" type="curve" smooth="yes"/>
      <point x="30" y="232"/>
      <point x="115" y="286"/>
      <point x="226" y="286" type="curve" smooth="yes"/>
      <point x="314" y="286"/>
      <point x="364" y="242"/>
      <point x="378" y="225" type="curve"/>
      <point x="378" y="178" type="line"/>
      <point x="333" y="210"/>
      <point x="288" y="225"/>
      <point x="230" y="225" type="curve" smooth="yes"/>
      <point x="149" y="225"/>
      <point x="111" y="191"/>
    </contour>
    <contour>
      <point x="111" y="352" type="curve"/>
      <point x="72" y="413" type="line"/>
      <point x="106" y="438"/>
      <point x="165" y="470"/>
      <point x="248" y="470" type="curve" smooth="yes"/>
      <point x="353" y="470"/>
      <point x="425" y="419"/>
      <point x="425" y="330" type="curve" smooth="yes"/>
      <point x="425" y="0" type="line"/>
      <point x="345" y="0" type="line"/>
      <point x="345" y="330" type="line" smooth="yes"/>
      <point x="345" y="376"/>
      <point x="298" y="400"/>
      <point x="248" y="400" type="curve" smooth="yes"/>
      <point x="182" y="400"/>
      <point x="133" y="368"/>
    </contour>
    <contour>
      <point x="293" y="585" type="curve" smooth="yes"/>
      <point x="293" y="615"/>
      <point x="318" y="640"/>
      <point x="348" y="640" type="curve" smooth="yes"/>
      <point x="378" y="640"/>
      <point x="403" y="615"/>
      <point x="403" y="585" type="curve" smooth="yes"/>
      <point x="403" y="555"/>
      <point x="378" y="530"/>
      <point x="348" y="530" type="curve" smooth="yes"/>
      <point x="318" y="530"/>
      <point x="293" y="555"/>
    </contour>
    <contour>
      <point x="93" y="585" type="curve" smooth="yes"/>
      <point x="93" y="615"/>
      <point x="118" y="640"/>
      <point x="148" y="640" type="curve" smooth="yes"/>
      <point x="178" y="640"/>
      <point x="203" y="615"/>
      <point x="203" y="585" type="curve" smooth="yes"/>
      <point x="203" y="555"/>
      <point x="178" y="530"/>
      <point x="148" y="530" type="curve" smooth="yes"/>
      <point x="118" y="530"/>
      <point x="93" y="555"/>
    </contour>
  </outline>
</glyph>
<glyph name="ae" format="2">
  <advance width="825"/>
  <unicode hex="00E6"/>
  <outline>
    <contour>
      <point x="208" y="-10" type="curve" smooth="yes"/>
      <point x="99" y="-10"/>
      <point x="30" y="43"/>
      <point x="30" y="125" type="curve" smooth="yes"/>
      <point x="30" y="221"/>
      <point x="110" y="286"/>
      <point x="226" y="286" type="curve" smooth="yes"/>
      <point x="280" y="286"/>
      <point x="320" y="272"/>
      <point x="388" y="230" type="curve"/>
      <point x="345" y="230" type="line"/>
      <point x="345" y="300" type="line" smooth="yes"/>
      <point x="345" y="364"/>
      <point x="310" y="400"/>
      <point x="248" y="400" type="curve" smooth="yes"/>
      <point x="203" y="400"/>
      <point x="151" y="382"/>
      <point x="111" y="352" type="curve"/>
      <point x="72" y="413" type="line"/>
      <point x="122" y="450"/>
      <point x="184" y="470"/>
      <point x="248" y="470" type="curve" smooth="yes"/>
      <point x="339" y="470"/>
      <point x="395" y="430"/>
      <point x="404" y="356" type="curve"/>
      <point x="394" y="356" type="line"/>
      <point x="430" y="427"/>
      <point x="501" y="470"/>
      <point x="583" y="470" type="curve" smooth="yes"/>
      <point x="705" y="470"/>
      <point x="790" y="373"/>
      <point x="790" y="234" type="curve" smooth="yes"/>
      <point x="790" y="223"/>
      <point x="789" y="214"/>
      <point x="788" y="210" type="curve"/>
      <point x="404" y="210" type="line"/>
      <point x="426" y="229" type="line"/>
      <point x="426" y="126"/>
      <point x="481" y="65"/>
      <point x="573" y="65" type="curve" smooth="yes"/>
      <point x="635" y="65"/>
      <point x="683" y="92"/>
      <point x="717" y="148" type="curve"/>
      <point x="782" y="107" type="line"/>
      <point x="732" y="30"/>
      <point x="657" y="-10"/>
      <point x="563" y="-10" type="curve" smooth="yes"/>
      <point x="473" y="-10"/>
      <point x="418" y="26"/>
      <point x="380" y="110" type="curve"/>
      <point x="390" y="110" type="line"/>
      <point x="378" y="36"/>
      <point x="308" y="-10"/>
    </contour>
    <contour>
      <point x="208" y="61" type="curve" smooth="yes"/>
      <point x="298" y="61"/>
      <point x="342" y="102"/>
      <point x="354" y="192" type="curve"/>
      <point x="351" y="116" type="line"/>
      <point x="345" y="221" type="line"/>
      <point x="354" y="194" type="line"/>
      <point x="318" y="214"/>
      <point x="276" y="225"/>
      <point x="230" y="225" type="curve" smooth="yes"/>
      <point x="152" y="225"/>
      <point x="111" y="194"/>
      <point x="111" y="135" type="curve" smooth="yes"/>
      <point x="111" y="84"/>
      <point x="141" y="61"/>
    </contour>
    <contour>
      <point x="426" y="239" type="curve"/>
      <point x="404" y="278" type="line"/>
      <point x="726" y="278" type="line"/>
      <point x="702" y="250" type="line"/>
      <point x="704" y="254"/>
      <point x="704" y="258"/>
      <point x="704" y="266" type="curve" smooth="yes"/>
      <point x="704" y="348"/>
      <point x="652" y="400"/>
      <point x="571" y="400" type="curve" smooth="yes"/>
      <point x="483" y="400"/>
      <point x="426" y="337"/>
    </contour>
  </outline>
</glyph>
<glyph name="ccedilla" format="2">
  <advance width="478"/>
  <unicode hex="00E7"/>
  <outline>
    <contour>
      <point x="111" y="230" type="curve" smooth="yes"/>
      <point x="111" y="134"/>
      <point x="178" y="65"/>
      <point x="268" y="65" type="curve" smooth="yes"/>
      <point x="342" y="65"/>
      <point x="407" y="104"/>
      <point x="428" y="149" type="curve"/>
      <point x="428" y="49" type="line"/>
      <point x="396" y="11"/>
      <point x="331" y="-10"/>
      <point x="268" y="-10" type="curve" smooth="yes"/>
      <point x="133" y="-10"/>
      <point x="30" y="91"/>
      <point x="30" y="230" type="curve" smooth="yes"/>
      <point x="30" y="369"/>
      <point x="133" y="470"/>
      <point x="268" y="470" type="curve" smooth="yes"/>
      <point x="331" y="470"/>
      <point x="396" y="448"/>
      <point x="428" y="411" type="curve"/>
      <point x="428" y="311" type="line"/>
      <point x="407" y="356"/>
      <point x="342" y="395"/>
      <point x="268" y="395" type="curve" smooth="yes"/>
      <point x="178" y="395"/>
      <point x="111" y="326"/>
    </contour>
    <contour>
      <point x="258" y="59" type="line"/>
      <point x="318" y="59" type="line"/>
      <point x="255" y="-53" type="line"/>
      <point x="258" y="-53"/>
      <point x="261" y="-53"/>
      <point x="264" y="-53" type="curve" smooth="yes"/>
      <point x="297" y="-53"/>
      <point x="336" y="-78"/>
      <point x="336" y="-127" type="curve" smooth="yes"/>
      <point x="336" y="-188"/>
      <point x="285" y="-221"/>
      <point x="230" y="-221" type="curve" smooth="yes"/>
      <point x="193" y="-221"/>
      <point x="168" y="-211"/>
      <point x="140" y="-183" type="curve"/>
      <point x="174" y="-143" type="line"/>
      <point x="193" y="-159"/>
      <point x="204" y="-167"/>
      <point x="230" y="-167" type="curve" smooth="yes"/>
      <point x="264" y="-167"/>
      <point x="280" y="-151"/>
      <point x="280" y="-127" type="curve" smooth="yes"/>
      <point x="280" y="-103"/>
      <point x="264" y="-91"/>
      <point x="230" y="-91" type="curve" smooth="yes"/>
      <point x="220" y="-91"/>
      <point x="193" y="-95"/>
      <point x="172" y="-109" type="curve"/>
    </contour>
  </outline>
</glyph>
<glyph name="igrave" format="2">
  <advance width="260"/>
  <unicode hex="00EC"/>
  <outline>
    <contour>
      <point x="90" y="460" type="line"/>
      <point x="170" y="460" type="line"/>
      <point x="170" y="0" type="line"/>
      <point x="90" y="0" type="line"/>
    </contour>
    <contour>
      <point x="-30" y="700" type="line"/>
      <point x="45" y="740" type="line"/>
      <point x="195" y="580" type="line"/>
      <point x="150" y="550" type="line"/>
    </contour>
  </outline>
</glyph>
<glyph name="icircumflex" format="2">
  <advance width="260"/>
  <unicode hex="00EE"/>
  <outline>
    <contour>
      <point x="90" y="460" type="line"/>
      <point x="170" y="460" type="line"/>
      <point x="170" y="0" type="line"/>
      <point x="90" y="0" type="line"/>
    </contour>
    <contour>
      <point x="130" y="635" type="line"/>
      <point x="20" y="540" type="line"/>
      <point x="-30" y="580" type="line"/>
      <point x="130" y="720" type="line"/>
      <point x="290" y="580" type="line"/>
      <point x="240" y="540" type="line"/>
    </contour>
  </outline>
</glyph>
<glyph name="ntilde" format="2">
  <advance width="525"/>
  <unicode hex="00F1"/>
  <outline>
    <contour>
      <point x="155" y="460" type="line"/>
      <point x="155" y="0" type="line"/>
      <point x="75" y="0" type="line"/>
      <point x="75" y="460" type="line"/>
    </contour>
    <contour>
      <point x="370" y="280" type="line" smooth="yes"/>
      <point x="370" y="356"/>
      <point x="337" y="395"/>
      <point x="272" y="395" type="curve" smooth="yes"/>
      <point x="202" y="395"/>
      <point x="155" y="346"/>
      <point x="155" y="280" type="curve"/>
      <point x="119" y="280" type="line"/>
      <point x="119" y="389"/>
      <point x="197" y="470"/>
      <point x="292" y="470" type="curve" smooth="yes"/>
      <point x="387" y="470"/>
      <point x="450" y="409"/>
      <point x="450" y="290" type="curve" smooth="yes"/>
      <point x="450" y="0" type="line"/>
      <point x="370" y="0" type="line"/>
    </contour>
    <contour>
      <point x="98" y="567" type="line"/>
      <point x="108" y="616"/>
      <point x="157" y="649"/>
      <point x="202" y="649" type="curve" smooth="yes"/>
      <point x="267" y="649"/>
      <point x="272" y="602"/>
      <point x="326" y="602" type="curve" smooth="yes"/>
      <point x="345" y="602"/>
      <point x="362" y="618"/>
      <point x="382" y="650" type="curve"/>
      <point x="428" y="607" type="line"/>
      <point x="412" y="570"/>
      <point x="372" y="534"/>
      <point x="322" y="534" type="curve" smooth="yes"/>
      <point x="267" y="534"/>
      <point x="246" y="581"/>
      <point x="201" y="581" type="curve" smooth="yes"/>
      <point x="160" y="581"/>
      <point x="151" y="545"/>
      <point x="151" y="530" type="curve"/>
    </contour>
  </outline>
</glyph>
<glyph name="udieresis" format="2">
  <advance width="525"/>
  <unicode hex="00FC"/>
  <outline>
    <contour>
      <point x="370" y="0" type="line"/>
      <point x="370" y="460" type="line"/>
      <point x="450" y="460" type="line"/>
      <point x="450" y="0" type="line"/>
    </contour>
    <contour>
      <point x="155" y="180" type="line" smooth="yes"/>
      <point x="155" y="104"/>
      <point x="188" y="65"/>
      <point x="253" y="65" type="curve" smooth="yes"/>
      <point x="323" y="65"/>
      <point x="370" y="114"/>
      <point x="370" y="180" type="curve"/>
      <point x="406" y="180" type="line"/>
      <point x="406" y="71"/>
      <point x="328" y="-10"/>
      <point x="233" y="-10" type="curve" smooth="yes"/>
      <point x="138" y="-10"/>
      <point x="75" y="51"/>
      <point x="75" y="170" type="curve" smooth="yes"/>
      <point x="75" y="460" type="line"/>
      <point x="155" y="460" type="line"/>
    </contour>
    <contour>
      <point x="308" y="605" type="curve" smooth="yes"/>
      <point x="308" y="635"/>
      <point x="332" y="660"/>
      <point x="362" y="660" type="curve" smooth="yes"/>
      <point x="392" y="660"/>
      <point x="418" y="635"/>
      <point x="418" y="605" type="curve" smooth="yes"/>
      <point x="418" y="575"/>
      <point x="392" y="550"/>
      <point x="362" y="550" type="curve" smooth="yes"/>
      <point x="332" y="550"/>
      <point x="308" y="575"/>
    </contour>
    <contour>
      <point x="108" y="605" type="curve" smooth="yes"/>
      <point x="108" y="635"/>
      <point x="132" y="660"/>
      <point x="162" y="660" type="curve" smooth="yes"/>
      <point x="192" y="660"/>
      <point x="218" y="635"/>
      <point x="218" y="605" type="curve" smooth="yes"/>
      <point x="218" y="575"/>
      <point x="192" y="550"/>
      <point x="162" y="550" type="curve" smooth="yes"/>
      <point x="132" y="550"/>
      <point x="108" y="575"/>
    </contour>
  </outline>
</glyph>
<glyph name="aogonek" format="2">
  <advance width="485"/>
  <unicode hex="0105"/>
  <outline>
    <contour>
      <point x="111" y="135" type="curve" smooth="yes"/>
      <point x="111" y="86"/>
      <point x="154" y="61"/>
      <point x="208" y="61" type="curve" smooth="yes"/>
      <point x="288" y="61"/>
      <point x="345" y="94"/>
      <point x="345" y="180" type="curve"/>
      <point x="361" y="130" type="line"/>
      <point x="361" y="41"/>
      <point x="283" y="-10"/>
      <point x="188" y="-10" type="curve" smooth="yes"/>
      <point x="101" y="-10"/>
      <point x="30" y="38"/>
      <point x="30" y="132" type="curve" smooth="yes"/>
      <point x="30" y="229"/>
      <point x="105" y="286"/>
      <point x="226" y="286" type="curve" smooth="yes"/>
      <point x="314" y="286"/>
      <point x="364" y="242"/>
      <point x="378" y="225" type="curve"/>
      <point x="378" y="178" type="line"/>
      <point x="333" y="210"/>
      <point x="288" y="225"/>
      <point x="230" y="225" type="curve" smooth="yes"/>
      <point x="149" y="225"/>
      <point x="111" y="191"/>
    </contour>
    <contour>
      <point x="111" y="352" type="curve"/>
      <point x="72" y="413" type="line"/>
      <point x="106" y="438"/>
      <point x="165" y="470"/>
      <point x="248" y="470" type="curve" smooth="yes"/>
      <point x="353" y="470"/>
      <point x="425" y="419"/>
      <point x="425" y="330" type="curve" smooth="yes"/>
      <point x="425" y="0" type="line"/>
      <point x="345" y="0" type="line"/>
      <point x="345" y="330" type="line" smooth="yes"/>
      <point x="345" y="376"/>
      <point x="298" y="400"/>
      <point x="248" y="400" type="curve" smooth="yes"/>
      <point x="182" y="400"/>
      <point x="133" y="368"/>
    </contour>
    <contour>
      <point x="430" y="-130" type="curve"/>
      <point x="463" y="-180" type="line"/>
      <point x="448" y="-200"/>
      <point x="418" y="-220"/>
      <point x="375" y="-220" type="curve" smooth="yes"/>
      <point x="291" y="-220"/>
      <point x="252" y="-179"/>
      <point x="252" y="-120" type="curve" smooth="yes"/>
      <point x="252" y="-61"/>
      <point x="314" y="-11"/>
      <point x="384" y="25" type="curve"/>
      <point x="425" y="0" type="line"/>
      <point x="373" y="-22"/>
      <point x="332" y="-63"/>
      <point x="332" y="-100" type="curve" smooth="yes"/>
      <point x="332" y="-136"/>
      <point x="350" y="-150"/>
      <point x="380" y="-150" type="curve" smooth="yes"/>
      <point x="406" y="-150"/>
      <point x="416" y="-143"/>
    </contour>
  </outline>
</glyph>
<glyph name="Edotaccent" format="2">
  <advance width="550"/>
  <unicode hex="0116"/>
  <outline>
    <contour>
      <point x="127" y="0" type="line"/>
      <point x="127" y="80" type="line"/>
      <point x="480" y="80" type="line"/>
      <point x="480" y="0" type="line"/>
    </contour>
    <contour>
      <point x="127" y="620" type="line"/>
      <point x="127" y="700" type="line"/>
      <point x="480" y="700" type="line"/>
      <point x="480" y="620" type="line"/>
    </contour>
    <contour>
      <point x="127" y="340" type="line"/>
      <point x="127" y="420" type="line"/>
      <point x="460" y="420" type="line"/>
      <point x="460" y="340" type="line"/>
    </contour>
    <contour>
      <point x="80" y="700" type="line"/>
      <point x="165" y="700" type="line"/>
      <point x="165" y="0" type="line"/>
      <point x="80" y="0" type="line"/>
    </contour>
    <contour>
      <point x="225" y="825" type="curve" smooth="yes"/>
      <point x="225" y="855"/>
      <point x="250" y="880"/>
      <point x="280" y="880" type="curve" smooth="yes"/>
      <point x="310" y="880"/>
      <point x="335" y="855"/>
      <point x="335" y="825" type="curve" smooth="yes"/>
      <point x="335" y="795"/>
      <point x="310" y="770"/>
      <point x="280" y="770" type="curve" smooth="yes"/>
      <point x="250" y="770"/>
      <point x="225" y="795"/>
    </contour>
  </outline>
</glyph>
<glyph name="eogonek" format="2">
  <advance width="515"/>
  <unicode hex="0119"/>
  <outline>
    <contour>
      <point x="86" y="210" type="line"/>
      <point x="86" y="278" type="line"/>
      <point x="393" y="278" type="line"/>
      <point x="385" y="350"/>
      <point x="343" y="400"/>
      <point x="263" y="400" type="curve" smooth="yes"/>
      <point x="183" y="400"/>
      <point x="118" y="346"/>
      <point x="118" y="260" type="curve"/>
      <point x="116" y="230" type="line"/>
      <point x="116" y="124"/>
      <point x="173" y="65"/>
      <point x="263" y="65" type="curve" smooth="yes"/>
      <point x="330" y="65"/>
      <point x="376" y="98"/>
      <point x="407" y="148" type="curve"/>
      <point x="472" y="107" type="line"/>
      <point x="405.0" y="48.0"/>
      <point x="372" y="-10"/>
      <point x="253" y="-10" type="curve" smooth="yes"/>
      <point x="128" y="-10"/>
      <point x="35" y="91"/>
      <point x="35" y="230" type="curve" smooth="yes"/>
      <point x="35" y="247"/>
      <point x="36" y="263"/>
      <point x="39" y="279" type="curve" smooth="yes"/>
      <point x="58" y="392"/>
      <point x="144" y="470"/>
      <point x="263" y="470" type="curve" smooth="yes"/>
      <point x="393" y="470"/>
      <point x="480" y="379"/>
      <point x="480" y="234" type="curve" smooth="yes"/>
      <point x="480" y="226"/>
      <point x="480" y="218"/>
      <point x="479" y="210" type="curve"/>
    </contour>
    <contour>
      <point x="444.0" y="-65.0" type="curve"/>
      <point x="477.0" y="-115.0" type="line"/>
      <point x="462.0" y="-135.0"/>
      <point x="422.0" y="-155.0"/>
      <point x="379.0" y="-155.0" type="curve" smooth="yes"/>
      <point x="320.0" y="-155.0"/>
      <point x="266.0" y="-132.0"/>
      <point x="266.0" y="-73.0" type="curve" smooth="yes"/>
      <point x="266.0" y="-14.0"/>
      <point x="338.0" y="34.0"/>
      <point x="398.0" y="90.0" type="curve"/>
      <point x="472.0" y="107.0" type="line"/>
      <point x="377.0" y="11.0"/>
      <point x="346.0" y="-8.0"/>
      <point x="346.0" y="-45.0" type="curve" smooth="yes"/>
      <point x="346.0" y="-71.0"/>
      <point x="364.0" y="-85.0"/>
      <point x="394.0" y="-85.0" type="curve" smooth="yes"/>
      <point x="420.0" y="-85.0"/>
      <point x="430.0" y="-78.0"/>
    </contour>
  </outline>
</glyph>
<glyph name="gbreve" format="2">
  <advance width="570"/>
  <unicode hex="011F"/>
  <outline>
    <contour>
      <point x="44" y="-30" type="curve"/>
      <point x="125" y="-30" type="line"/>
      <point x="125" y="-96"/>
      <point x="182" y="-155"/>
      <point x="272" y="-155" type="curve" smooth="yes"/>
      <point x="342" y="-155"/>
      <point x="420" y="-106"/>
      <point x="420" y="10" type="curve" smooth="yes"/>
      <point x="420" y="460" type="line"/>
      <point x="500" y="460" type="line"/>
      <point x="500" y="10" type="line" smooth="yes"/>
      <point x="500" y="-149"/>
      <point x="387" y="-230"/>
      <point x="272" y="-230" type="curve" smooth="yes"/>
      <point x="137" y="-230"/>
      <point x="44" y="-149"/>
    </contour>
    <contour>
      <point x="35" y="230" type="curve" smooth="yes"/>
      <point x="35" y="379"/>
      <point x="138" y="470"/>
      <point x="263" y="470" type="curve" smooth="yes"/>
      <point x="378" y="470"/>
      <point x="456" y="379"/>
      <point x="456" y="230" type="curve" smooth="yes"/>
      <point x="456" y="81"/>
      <point x="378" y="-10"/>
      <point x="263" y="-10" type="curve" smooth="yes"/>
      <point x="138" y="-10"/>
      <point x="35" y="81"/>
    </contour>
    <contour>
      <point x="116" y="230" type="curve" smooth="yes"/>
      <point x="116" y="124"/>
      <point x="188" y="65"/>
      <point x="273" y="65" type="curve" smooth="yes"/>
      <point x="343" y="65"/>
      <point x="420" y="124"/>
      <point x="420" y="230" type="curve" smooth="yes"/>
      <point x="420" y="336"/>
      <point x="343" y="395"/>
      <point x="273" y="395" type="curve" smooth="yes"/>
      <point x="188" y="395"/>
      <point x="116" y="336"/>
    </contour>
    <contour>
      <point x="105" y="670" type="curve"/>
      <point x="176" y="670" type="line"/>
      <point x="176" y="644"/>
      <point x="193" y="595"/>
      <point x="263" y="595" type="curve" smooth="yes"/>
      <point x="333" y="595"/>
      <point x="350" y="644"/>
      <point x="350" y="670" type="curve"/>
      <point x="421" y="670" type="line"/>
      <point x="421" y="601"/>
      <point x="368" y="530"/>
      <point x="263" y="530" type="curve" smooth="yes"/>
      <point x="158" y="530"/>
      <point x="105" y="601"/>
    </contour>
  </outline>
</glyph>
<glyph name="Itilde" format="2">
  <advance width="245"/>
  <unicode hex="0128"/>
  <outline>
    <contour>
      <point x="80" y="700" type="line"/>
      <point x="165" y="700" type="line"/>
      <point x="165" y="0" type="line"/>
      <point x="80" y="0" type="line"/>
    </contour>
    <contour>
      <point x="-42" y="807" type="line"/>
      <point x="-32" y="856"/>
      <point x="17" y="889"/>
      <point x="62" y="889" type="curve" smooth="yes"/>
      <point x="127" y="889"/>
      <point x="132" y="842"/>
      <point x="186" y="842" type="curve" smooth="yes"/>
      <point x="205" y="842"/>
      <point x="222" y="858"/>
      <point x="242" y="890" type="curve"/>
      <point x="288" y="847" type="line"/>
      <point x="272" y="810"/>
      <point x="232" y="774"/>
      <point x="182" y="774" type="curve" smooth="yes"/>
      <point x="127" y="774"/>
      <point x="106" y="821"/>
      <point x="61" y="821" type="curve" smooth="yes"/>
      <point x="20" y="821"/>
      <point x="11" y="785"/>
      <point x="11" y="770" type="curve"/>
    </contour>
  </outline>
</glyph>
<glyph name="Ibreve" format="2">
  <advance width="245"/>
  <unicode hex="012C"/>
  <outline>
    <contour>
      <point x="80" y="700" type="line"/>
      <point x="165" y="700" type="line"/>
      <point x="165" y="0" type="line"/>
      <point x="80" y="0" type="line"/>
    </contour>
    <contour>
      <point x="-35" y="910" type="curve"/>
      <point x="36" y="910" type="line"/>
      <point x="36" y="884"/>
      <point x="53" y="835"/>
      <point x="123" y="835" type="curve" smooth="yes"/>
      <point x="193" y="835"/>
      <point x="210" y="884"/>
      <point x="210" y="910" type="curve"/>
      <point x="281" y="910" type="line"/>
      <point x="281" y="841"/>
      <point x="228" y="770"/>
      <point x="123" y="770" type="curve" smooth="yes"/>
      <point x="18" y="770"/>
      <point x="-35" y="841"/>
    </contour>
  </outline>
</glyph>
<glyph name="Iogonek" format="2">
  <advance width="245"/>
  <unicode hex="012E"/>
  <outline>
    <contour>
      <point x="80" y="700" type="line"/>
      <point x="165" y="700" type="line"/>
      <point x="165" y="0" type="line"/>
      <point x="80" y="0" type="line"/>
    </contour>
    <contour>
      <point x="170" y="-130" type="curve"/>
      <point x="203" y="-180" type="line"/>
      <point x="188" y="-200"/>
      <point x="158" y="-220"/>
      <point x="115" y="-220" type="curve" smooth="yes"/>
      <point x="31" y="-220"/>
      <point x="-8" y="-179"/>
      <point x="-8" y="-120" type="curve" smooth="yes"/>
      <point x="-8" y="-61"/>
      <point x="54" y="-11"/>
      <point x="124" y="25" type="curve"/>
      <point x="165" y="0" type="line"/>
      <point x="113" y="-22"/>
      <point x="72" y="-63"/>
      <point x="72" y="-100" type="curve" smooth="yes"/>
      <point x="72" y="-136"/>
      <point x="90" y="-150"/>
      <point x="120" y="-150" type="curve" smooth="yes"/>
      <point x="146" y="-150"/>
      <point x="156" y="-143"/>
    </contour>
  </outline>
</glyph>
<glyph name="Lslash" format="2">
  <advance width="450"/>
  <unicode hex="0141"/>
  <outline>
    <contour>
      <point x="5" y="340" type="line"/>
      <point x="-15" y="395" type="line"/>
      <point x="255" y="565" type="line"/>
      <point x="275" y="510" type="line"/>
    </contour>
    <contour>
      <point x="80" y="700" type="line"/>
      <point x="165" y="700" type="line"/>
      <point x="165" y="80" type="line"/>
      <point x="440" y="80" type="line"/>
      <point x="440" y="0" type="line"/>
      <point x="80" y="0" type="line"/>
    </contour>
  </outline>
</glyph>
<glyph name="Eng" format="2">
  <advance width="775"/>
  <unicode hex="014A"/>
  <outline>
    <contour>
      <point x="562" y="-220" type="curve" smooth="yes"/>
      <point x="522" y="-220"/>
      <point x="494" y="-207"/>
      <point x="474" y="-180" type="curve"/>
      <point x="518" y="-114" type="line"/>
      <point x="528" y="-130"/>
      <point x="546" y="-140"/>
      <point x="567" y="-140" type="curve" smooth="yes"/>
      <point x="601" y="-140"/>
      <point x="615" y="-114"/>
      <point x="615" y="-50" type="curve" smooth="yes"/>
      <point x="615" y="49" type="line"/>
      <point x="165" y="521" type="line"/>
      <point x="165" y="0" type="line"/>
      <point x="80" y="0" type="line"/>
      <point x="80" y="735" type="line"/>
      <point x="610" y="179" type="line"/>
      <point x="610" y="700" type="line"/>
      <point x="695" y="700" type="line"/>
      <point x="695" y="-60" type="line" smooth="yes"/>
      <point x="695" y="-161"/>
      <point x="646" y="-220"/>
    </contour>
  </outline>
</glyph>
<glyph name="eng" format="2">
  <advance width="525"/>
  <unicode hex="014B"/>
  <outline>
    <contour>
      <point x="317" y="-220" type="curve" smooth="yes"/>
      <point x="281" y="-220"/>
      <point x="247" y="-205"/>
      <point x="229" y="-180" type="curve"/>
      <point x="273" y="-114" type="line"/>
      <point x="284" y="-132"/>
      <point x="300" y="-140"/>
      <point x="322" y="-140" type="curve" smooth="yes"/>
      <point x="354" y="-140"/>
      <point x="370" y="-111"/>
      <point x="370" y="-50" type="curve" smooth="yes"/>
      <point x="370" y="280" type="line" smooth="yes"/>
      <point x="370" y="356"/>
      <point x="337" y="395"/>
      <point x="272" y="395" type="curve" smooth="yes"/>
      <point x="204" y="395"/>
      <point x="155" y="348"/>
      <point x="155" y="280" type="curve" smooth="yes"/>
      <point x="155" y="0" type="line"/>
      <point x="75" y="0" type="line"/>
      <point x="75" y="460" type="line"/>
      <point x="155" y="460" type="line"/>
      <point x="155" y="388" type="line"/>
      <point x="185" y="440"/>
      <point x="234" y="470"/>
      <point x="292" y="470" type="curve" smooth="yes"/>
      <point x="392" y="470"/>
      <point x="450" y="404"/>
      <point x="450" y="290" type="curve" smooth="yes"/>
      <point x="450" y="-60" type="line" smooth="yes"/>
      <point x="450" y="-165"/>
      <point x="405" y="-220"/>
    </contour>
  </outline>
</glyph>
<glyph name="zdotaccent" format="2">
  <advance width="460"/>
  <unicode hex="017C"/>
  <outline>
    <contour>
      <point x="300" y="385" type="line"/>
      <point x="45" y="385" type="line"/>
      <point x="45" y="460" type="line"/>
      <point x="445" y="460" type="line"/>
      <point x="160" y="75" type="line"/>
      <point x="425" y="75" type="line"/>
      <point x="425" y="0" type="line"/>
      <point x="15" y="0" type="line"/>
    </contour>
    <contour>
      <point x="190" y="615" type="curve" smooth="yes"/>
      <point x="190" y="645"/>
      <point x="215" y="670"/>
      <point x="245" y="670" type="curve" smooth="yes"/>
      <point x="275" y="670"/>
      <point x="300" y="645"/>
      <point x="300" y="615" type="curve" smooth="yes"/>
      <point x="300" y="585"/>
      <point x="275" y="560"/>
      <point x="245" y="560" type="curve" smooth="yes"/>
      <point x="215" y="560"/>
      <point x="190" y="585"/>
    </contour>
  </outline>
</glyph>
<glyph name="Zcaron" format="2">
  <advance width="545"/>
  <unicode hex="017D"/>
  <outline>
    <contour>
      <point x="35" y="620" type="line"/>
      <point x="35" y="700" type="line"/>
      <point x="525" y="700" type="line"/>
      <point x="157" y="80" type="line"/>
      <point x="505" y="80" type="line"/>
      <point x="505" y="0" type="line"/>
      <point x="15" y="0" type="line"/>
      <point x="383" y="620" type="line"/>
    </contour>
    <contour>
      <point x="280" y="855" type="line"/>
      <point x="390" y="950" type="line"/>
      <point x="440" y="910" type="line"/>
      <point x="280" y="770" type="line"/>
      <point x="120" y="910" type="line"/>
      <point x="170" y="950" type="line"/>
    </contour>
  </outline>
</glyph>
<glyph name="circumflex" format="2">
  <advance width="480"/>
  <unicode hex="02C6"/>
  <outline>
    <contour>
      <point x="240" y="645" type="line"/>
      <point x="130" y="550" type="line"/>
      <point x="80" y="590" type="line"/>
      <point x="240" y="730" type="line"/>
      <point x="400" y="590" type="line"/>
      <point x="350" y="550" type="line"/>
    </contour>
  </outline>
</glyph>
<glyph name="breve" format="2">
  <advance width="546"/>
  <unicode hex="02D8"/>
  <outline>
    <contour>
      <point x="115" y="850" type="curve"/>
      <point x="186" y="850" type="line"/>
      <point x="186" y="824"/>
      <point x="203" y="775"/>
      <point x="273" y="775" type="curve" smooth="yes"/>
      <point x="343" y="775"/>
      <point x="360" y="824"/>
      <point x="360" y="850" type="curve"/>
      <point x="431" y="850" type="line"/>
      <point x="431" y="781"/>
      <point x="378" y="710"/>
      <point x="273" y="710" type="curve" smooth="yes"/>
      <point x="168" y="710"/>
      <point x="115" y="781"/>
    </contour>
  </outline>
</glyph>
<glyph name="dotaccent" format="2">
  <advance width="300"/>
  <unicode hex="02D9"/>
  <outline>
    <contour>
      <point x="95" y="790" type="curve" smooth="yes"/>
      <point x="95" y="820"/>
      <point x="120" y="845"/>
      <point x="150" y="845" type="curve" smooth="yes"/>
      <point x="180" y="845"/>
      <point x="205" y="820"/>
      <point x="205" y="790" type="curve" smooth="yes"/>
      <point x="205" y="760"/>
      <point x="180" y="735"/>
      <point x="150" y="735" type="curve" smooth="yes"/>
      <point x="120" y="735"/>
      <point x="95" y="760"/>
    </contour>
  </outline>
</glyph>
<glyph name="hungarumlaut" format="2">
  <unicode hex="02DD"/>
  <outline>
    <contour>
      <point x="52" y="511" type="line"/>
      <point x="0" y="528" type="line"/>
      <point x="104" y="722" type="line"/>
      <point x="186" y="702" type="line"/>
    </contour>
    <contour>
      <point x="216" y="511" type="line"/>
      <point x="165" y="528" type="line"/>
      <point x="268" y="722" type="line"/>
      <point x="352" y="702" type="line"/>
    </contour>
  </outline>
</glyph>
<glyph name="gravecomb" format="2">
  <unicode hex="0300"/>
  <outline>
    <contour>
      <point x="180" y="545" type="line"/>
      <point x="0" y="695" type="line"/>
      <point x="75" y="735" type="line"/>
      <point x="225" y="575" type="line"/>
    </contour>
  </outline>
</glyph>
<glyph name="acutecomb" format="2">
  <unicode hex="0301"/>
  <outline>
    <contour>
      <point x="60" y="545" type="line"/>
      <point x="15" y="575" type="line"/>
      <point x="165" y="735" type="line"/>
      <point x="240" y="695" type="line"/>
    </contour>
  </outline>
</glyph>
<glyph name="uni0307" format="2">
  <unicode hex="0307"/>
  <outline>
    <contour>
      <point x="55" y="570" type="curve" smooth="yes"/>
      <point x="25" y="570"/>
      <point x="0" y="595"/>
      <point x="0" y="625" type="curve" smooth="yes"/>
      <point x="0" y="655"/>
      <point x="25" y="680"/>
      <point x="55" y="680" type="curve" smooth="yes"/>
      <point x="85" y="680"/>
      <point x="110" y="655"/>
      <point x="110" y="625" type="curve" smooth="yes"/>
      <point x="110" y="595"/>
      <point x="85" y="570"/>
    </contour>
  </outline>
</glyph>
<glyph name="uni0308" format="2">
  <unicode hex="0308"/>
  <outline>
    <contour>
      <point x="55" y="605" type="curve" smooth="yes"/>
      <point x="22" y="605"/>
      <point x="0" y="627"/>
      <point x="0" y="660" type="curve" smooth="yes"/>
      <point x="0" y="693"/>
      <point x="22" y="715"/>
      <point x="55" y="715" type="curve" smooth="yes"/>
      <point x="88" y="715"/>
      <point x="110" y="693"/>
      <point x="110" y="660" type="curve" smooth="yes"/>
      <point x="110" y="627"/>
      <point x="88" y="605"/>
    </contour>
    <contour>
      <point x="255" y="605" type="curve" smooth="yes"/>
      <point x="222" y="605"/>
      <point x="200" y="627"/>
      <point x="200" y="660" type="curve" smooth="yes"/>
      <point x="200" y="693"/>
      <point x="222" y="715"/>
      <point x="255" y="715" type="curve" smooth="yes"/>
      <point x="288" y="715"/>
      <point x="310" y="693"/>
      <point x="310" y="660" type="curve" smooth="yes"/>
      <point x="310" y="627"/>
      <point x="288" y="605"/>
    </contour>
  </outline>
</glyph>
<glyph name="uni030B" format="2">
  <unicode hex="030B"/>
  <outline>
    <contour>
      <point x="52" y="511" type="line"/>
      <point x="0" y="528" type="line"/>
      <point x="104" y="722" type="line"/>
      <point x="186" y="702" type="line"/>
    </contour>
    <contour>
      <point x="216" y="511" type="line"/>
      <point x="165" y="528" type="line"/>
      <point x="268" y="722" type="line"/>
      <point x="352" y="702" type="line"/>
    </contour>
  </outline>
</glyph>
<glyph name="uni0312" format="2">
  <unicode hex="0312"/>
  <outline>
    <contour>
      <point x="80" y="500" type="line"/>
      <point x="0" y="530" type="line"/>
      <point x="110" y="780" type="line"/>
      <point x="168" y="759" type="line"/>
    </contour>
  </outline>
</glyph>
<glyph name="uni0326" format="2">
  <unicode hex="0326"/>
  <outline>
    <contour>
      <point x="40" y="-220" type="line"/>
      <point x="0" y="-197" type="line"/>
      <point x="98" y="-17" type="line"/>
      <point x="154" y="-50" type="line"/>
    </contour>
  </outline>
</glyph>
<glyph name="uni0328" format="2">
  <unicode hex="0328"/>
  <outline>
    <contour>
      <point x="123" y="-220" type="curve" smooth="yes"/>
      <point x="39" y="-220"/>
      <point x="0" y="-179"/>
      <point x="0" y="-120" type="curve" smooth="yes"/>
      <point x="0" y="-61"/>
      <point x="62" y="-11"/>
      <point x="132" y="25" type="curve"/>
      <point x="173" y="0" type="line"/>
      <point x="121" y="-22"/>
      <point x="80" y="-63"/>
      <point x="80" y="-100" type="curve" smooth="yes"/>
      <point x="80" y="-136"/>
      <point x="98" y="-150"/>
      <point x="128" y="-150" type="curve" smooth="yes"/>
      <point x="154" y="-150"/>
      <point x="164" y="-143"/>
      <point x="178" y="-130" type="curve"/>
      <point x="211" y="-180" type="line"/>
      <point x="196" y="-200"/>
      <point x="166" y="-220"/>
    </contour>
  </outline>
</glyph>
<glyph name="uni03A9" format="2">
  <advance width="600"/>
  <unicode hex="03A9"/>
  <outline>
    <contour>
      <point x="66" y="0" type="line"/>
      <point x="259" y="0" type="line"/>
      <point x="259" y="78" type="line"/>
      <point x="202" y="123"/>
      <point x="158" y="224"/>
      <point x="158" y="311" type="curve" smooth="yes"/>
      <point x="158" y="413"/>
      <point x="208" y="466"/>
      <point x="300" y="466" type="curve" smooth="yes"/>
      <point x="392" y="466"/>
      <point x="440" y="413"/>
      <point x="440" y="311" type="curve" smooth="yes"/>
      <point x="440" y="223"/>
      <point x="397" y="123"/>
      <point x="340" y="78" type="curve"/>
      <point x="340" y="0" type="line"/>
      <point x="533" y="0" type="line"/>
      <point x="533" y="68" type="line"/>
      <point x="446" y="68" type="line"/>
      <point x="498" y="140"/>
      <point x="530" y="235"/>
      <point x="530" y="317" type="curve" smooth="yes"/>
      <point x="530" y="455"/>
      <point x="432" y="559"/>
      <point x="300" y="559" type="curve" smooth="yes"/>
      <point x="168" y="559"/>
      <point x="69" y="455"/>
      <point x="69" y="317" type="curve" smooth="yes"/>
      <point x="69" y="235"/>
      <point x="101" y="140"/>
      <point x="153" y="68" type="curve"/>
      <point x="66" y="68" type="line"/>
    </contour>
  </outline>
</glyph>
<glyph name="uni0403" format="2">
  <advance width="435"/>
  <unicode hex="0403"/>
  <outline>
    <contour>
      <point x="80" y="700" type="line"/>
      <point x="425" y="700" type="line"/>
      <point x="425" y="620" type="line"/>
      <point x="165" y="620" type="line"/>
      <point x="165" y="0" type="line"/>
      <point x="80" y="0" type="line"/>
    </contour>
    <contour>
      <point x="432.5" y="920" type="line"/>
      <point x="252.5" y="770" type="line"/>
      <point x="207.5" y="800" type="line"/>
      <point x="357.5" y="960" type="line"/>
    </contour>
  </outline>
</glyph>
<glyph name="uni040D" format="2">
  <advance width="775"/>
  <unicode hex="040D"/>
  <outline>
    <contour>
      <point x="690" y="605" type="line"/>
      <point x="80" y="-35" type="line"/>
      <point x="85" y="95" type="line"/>
      <point x="695" y="735" type="line"/>
    </contour>
    <contour>
      <point x="165" y="700" type="line"/>
      <point x="165" y="75" type="line"/>
      <point x="80" y="-35" type="line"/>
      <point x="80" y="700" type="line"/>
    </contour>
    <contour>
      <point x="695" y="735" type="line"/>
      <point x="695" y="0" type="line"/>
      <point x="610" y="0" type="line"/>
      <point x="610" y="625" type="line"/>
    </contour>
    <contour>
      <point x="255" y="895" type="line"/>
      <point x="330" y="935" type="line"/>
      <point x="480" y="775" type="line"/>
      <point x="435" y="745" type="line"/>
    </contour>
  </outline>
</glyph>
<glyph name="uni0418" format="2">
  <advance width="775"/>
  <unicode hex="0418"/>
  <outline>
    <contour>
      <point x="690" y="605" type="line"/>
      <point x="80" y="-35" type="line"/>
      <point x="85" y="95" type="line"/>
      <point x="695" y="735" type="line"/>
    </contour>
    <contour>
      <point x="165" y="700" type="line"/>
      <point x="165" y="75" type="line"/>
      <point x="80" y="-35" type="line"/>
      <point x="80" y="700" type="line"/>
    </contour>
    <contour>
      <point x="695" y="735" type="line"/>
      <point x="695" y="0" type="line"/>
      <point x="610" y="0" type="line"/>
      <point x="610" y="625" type="line"/>
    </contour>
  </outline>
</glyph>
<glyph name="uni0419" format="2">
  <advance width="775"/>
  <unicode hex="0419"/>
  <outline>
    <contour>
      <point x="690" y="605" type="line"/>
      <point x="80" y="-35" type="line"/>
      <point x="85" y="95" type="line"/>
      <point x="695" y="735" type="line"/>
    </contour>
    <contour>
      <point x="165" y="700" type="line"/>
      <point x="165" y="75" type="line"/>
      <point x="80" y="-35" type="line"/>
      <point x="80" y="700" type="line"/>
    </contour>
    <contour>
      <point x="695" y="735" type="line"/>
      <point x="695" y="0" type="line"/>
      <point x="610" y="0" type="line"/>
      <point x="610" y="625" type="line"/>
    </contour>
    <contour>
      <point x="257" y="905" type="curve"/>
      <point x="328" y="905" type="line"/>
      <point x="328" y="879"/>
      <point x="345" y="830"/>
      <point x="415" y="830" type="curve" smooth="yes"/>
      <point x="485" y="830"/>
      <point x="502" y="879"/>
      <point x="502" y="905" type="curve"/>
      <point x="573" y="905" type="line"/>
      <point x="573" y="836"/>
      <point x="520" y="765"/>
      <point x="415" y="765" type="curve" smooth="yes"/>
      <point x="310" y="765"/>
      <point x="257" y="836"/>
    </contour>
  </outline>
</glyph>
<glyph name="uni041F" format="2">
  <advance width="715"/>
  <unicode hex="041F"/>
  <outline>
    <contour>
      <point x="550" y="620" type="line"/>
      <point x="165" y="620" type="line"/>
      <point x="165" y="0" type="line"/>
      <point x="80" y="0" type="line"/>
      <point x="80" y="700" type="line"/>
      <point x="635" y="700" type="line"/>
      <point x="635" y="0" type="line"/>
      <point x="550" y="0" type="line"/>
    </contour>
  </outline>
</glyph>
<glyph name="uni0425" format="2">
  <advance width="555"/>
  <unicode hex="0425"/>
  <outline>
    <contour>
      <point x="430" y="700" type="line"/>
      <point x="530" y="700" type="line"/>
      <point x="323" y="367" type="line"/>
      <point x="545" y="0" type="line"/>
      <point x="445" y="0" type="line"/>
      <point x="280" y="293" type="line"/>
      <point x="110" y="0" type="line"/>
      <point x="10" y="0" type="line"/>
      <point x="238" y="367" type="line"/>
      <point x="35" y="700" type="line"/>
      <point x="135" y="700" type="line"/>
      <point x="281" y="441" type="line"/>
    </contour>
  </outline>
</glyph>
<glyph name="uni0427" format="2">
  <advance width="615"/>
  <unicode hex="0427"/>
  <outline>
    <contour>
      <point x="290" y="280" type="line"/>
      <point x="290" y="355" type="line"/>
      <point x="507" y="355" type="line"/>
      <point x="507" y="280" type="line"/>
    </contour>
    <contour>
      <point x="450" y="700" type="line"/>
      <point x="535" y="700" type="line"/>
      <point x="535" y="0" type="line"/>
      <point x="450" y="0" type="line"/>
    </contour>
    <contour>
      <point x="160" y="700" type="line"/>
      <point x="160" y="518" type="line" smooth="yes"/>
      <point x="160" y="428"/>
      <point x="204" y="355"/>
      <point x="290" y="355" type="curve"/>
      <point x="290" y="280" type="line"/>
      <point x="151" y="280"/>
      <point x="80" y="383"/>
      <point x="80" y="518" type="curve" smooth="yes"/>
      <point x="80" y="700" type="line"/>
    </contour>
  </outline>
</glyph>
<glyph name="uni0437" format="2">
  <advance width="471"/>
  <unicode hex="0437"/>
  <outline>
    <contour>
      <point x="238" y="230" type="curve"/>
      <point x="238" y="280" type="line"/>
      <point x="299" y="280"/>
      <point x="324" y="306"/>
      <point x="324" y="340" type="curve" smooth="yes"/>
      <point x="324" y="376"/>
      <point x="296" y="398"/>
      <point x="248" y="398" type="curve" smooth="yes"/>
      <point x="187" y="398"/>
      <point x="161" y="357"/>
      <point x="161" y="326" type="curve"/>
      <point x="80" y="326" type="line"/>
      <point x="80" y="404"/>
      <point x="151" y="470"/>
      <point x="248" y="470" type="curve" smooth="yes"/>
      <point x="338" y="470"/>
      <point x="406" y="414"/>
      <point x="406" y="346" type="curve" smooth="yes"/>
      <point x="406" y="279"/>
      <point x="343" y="230"/>
    </contour>
    <contour>
      <point x="246" y="-10" type="curve" smooth="yes"/>
      <point x="138" y="-10"/>
      <point x="70" y="56"/>
      <point x="60" y="145" type="curve"/>
      <point x="141" y="145" type="line"/>
      <point x="150" y="101"/>
      <point x="176" y="60"/>
      <point x="246" y="60" type="curve" smooth="yes"/>
      <point x="309" y="60"/>
      <point x="347" y="89"/>
      <point x="347" y="134" type="curve" smooth="yes"/>
      <point x="347" y="181"/>
      <point x="308" y="210"/>
      <point x="238" y="210" type="curve"/>
      <point x="238" y="260" type="line"/>
      <point x="352" y="260"/>
      <point x="426" y="221"/>
      <point x="426" y="135" type="curve" smooth="yes"/>
      <point x="426" y="45"/>
      <point x="344" y="-10"/>
    </contour>
  </outline>
</glyph>
<glyph name="uni043F" format="2">
  <advance width="525"/>
  <unicode hex="043F"/>
  <outline>
    <contour>
      <point x="450" y="460" type="line"/>
      <point x="450" y="0" type="line"/>
      <point x="370" y="0" type="line"/>
      <point x="370" y="385" type="line"/>
      <point x="155" y="385" type="line"/>
      <point x="155" y="0" type="line"/>
      <point x="75" y="0" type="line"/>
      <point x="75" y="460" type="line"/>
    </contour>
  </outline>
</glyph>
<glyph name="uni0448" format="2">
  <advance width="780"/>
  <unicode hex="0448"/>
  <outline>
    <contour>
      <point x="430" y="75" type="line"/>
      <point x="625" y="75" type="line"/>
      <point x="625" y="460" type="line"/>
      <point x="705" y="460" type="line"/>
      <point x="705" y="0" type="line"/>
      <point x="75" y="0" type="line"/>
      <point x="75" y="460" type="line"/>
      <point x="155" y="460" type="line"/>
      <point x="155" y="75" type="line"/>
      <point x="350" y="75" type="line"/>
      <point x="350" y="460" type="line"/>
      <point x="430" y="460" type="line"/>
    </contour>
  </outline>
</glyph>
<glyph name="uni044A" format="2">
  <advance width="578"/>
  <unicode hex="044A"/>
  <outline>
    <contour>
      <point x="217" y="216" type="line"/>
      <point x="217" y="286" type="line"/>
      <point x="360" y="286" type="line" smooth="yes"/>
      <point x="455" y="286"/>
      <point x="528" y="242"/>
      <point x="528" y="143" type="curve" smooth="yes"/>
      <point x="528" y="44"/>
      <point x="455" y="0"/>
      <point x="360" y="0" type="curve" smooth="yes"/>
      <point x="217" y="0" type="line"/>
      <point x="217" y="70" type="line"/>
      <point x="360" y="70" type="line" smooth="yes"/>
      <point x="418" y="70"/>
      <point x="448" y="97"/>
      <point x="448" y="143" type="curve" smooth="yes"/>
      <point x="448" y="189"/>
      <point x="418" y="216"/>
      <point x="360" y="216" type="curve" smooth="yes"/>
    </contour>
    <contour>
      <point x="170" y="385" type="line"/>
      <point x="5" y="385" type="line"/>
      <point x="5" y="460" type="line"/>
      <point x="250" y="460" type="line"/>
      <point x="250" y="0" type="line"/>
      <point x="170" y="0" type="line"/>
    </contour>
  </outline>
</glyph>
<glyph name="uni044C" format="2">
  <advance width="483"/>
  <unicode hex="044C"/>
  <outline>
    <contour>
      <point x="75" y="460" type="line"/>
      <point x="155" y="460" type="line"/>
      <point x="155" y="0" type="line"/>
      <point x="75" y="0" type="line"/>
    </contour>
    <contour>
      <point x="122" y="216" type="line"/>
      <point x="122" y="286" type="line"/>
      <point x="265" y="286" type="line" smooth="yes"/>
      <point x="360" y="286"/>
      <point x="433" y="242"/>
      <point x="433" y="143" type="curve" smooth="yes"/>
      <point x="433" y="44"/>
      <point x="360" y="0"/>
      <point x="265" y="0" type="curve" smooth="yes"/>
      <point x="122" y="0" type="line"/>
      <point x="122" y="70" type="line"/>
      <point x="265" y="70" type="line" smooth="yes"/>
      <point x="323" y="70"/>
      <point x="353" y="97"/>
      <point x="353" y="143" type="curve" smooth="yes"/>
      <point x="353" y="189"/>
      <point x="323" y="216"/>
      <point x="265" y="216" type="curve" smooth="yes"/>
    </contour>
  </outline>
</glyph>
<glyph name="uni045D" format="2">
  <advance width="545"/>
  <unicode hex="045D"/>
  <outline>
    <contour>
      <point x="460" y="380" type="line"/>
      <point x="80" y="-35" type="line"/>
      <point x="85" y="80" type="line"/>
      <point x="465" y="495" type="line"/>
    </contour>
    <contour>
      <point x="160" y="460" type="line"/>
      <point x="160" y="75" type="line"/>
      <point x="80" y="-35" type="line"/>
      <point x="80" y="460" type="line"/>
    </contour>
    <contour>
      <point x="465" y="495" type="line"/>
      <point x="465" y="0" type="line"/>
      <point x="385" y="0" type="line"/>
      <point x="385" y="385" type="line"/>
    </contour>
    <contour>
      <point x="115" y="705" type="line"/>
      <point x="190" y="745" type="line"/>
      <point x="340" y="585" type="line"/>
      <point x="295" y="555" type="line"/>
    </contour>
  </outline>
</glyph>
<glyph name="uni1E9E" format="2">
  <advance width="716"/>
  <unicode hex="1E9E"/>
  <outline>
    <contour>
      <point x="422" y="-12" type="curve" smooth="yes"/>
      <point x="572" y="-12"/>
      <point x="678" y="68"/>
      <point x="678" y="182" type="curve" smooth="yes"/>
      <point x="678" y="333"/>
      <point x="496" y="310"/>
      <point x="496" y="366" type="curve" smooth="yes"/>
      <point x="496" y="412"/>
      <point x="622" y="426"/>
      <point x="622" y="552" type="curve" smooth="yes"/>
      <point x="622" y="648"/>
      <point x="538" y="709"/>
      <point x="406" y="709" type="curve" smooth="yes"/>
      <point x="238" y="709"/>
      <point x="80" y="612"/>
      <point x="80" y="389" type="curve" smooth="yes"/>
      <point x="80" y="-2" type="line"/>
      <point x="166" y="-2" type="line"/>
      <point x="164" y="382" type="line" smooth="yes"/>
      <point x="164" y="554"/>
      <point x="268" y="624"/>
      <point x="393" y="624" type="curve" smooth="yes"/>
      <point x="497" y="624"/>
      <point x="532" y="576"/>
      <point x="532" y="534" type="curve" smooth="yes"/>
      <point x="532" y="451"/>
      <point x="398" y="456"/>
      <point x="398" y="360" type="curve" smooth="yes"/>
      <point x="398" y="246"/>
      <point x="588" y="292"/>
      <point x="588" y="176" type="curve" smooth="yes"/>
      <point x="588" y="102"/>
      <point x="509" y="74"/>
      <point x="428" y="74" type="curve" smooth="yes"/>
      <point x="358" y="74"/>
      <point x="316" y="95"/>
      <point x="270" y="126" type="curve"/>
      <point x="230" y="54" type="line"/>
      <point x="279" y="15"/>
      <point x="336" y="-12"/>
    </contour>
  </outline>
</glyph>
<glyph name="quoteleft" format="2">
  <advance width="275"/>
  <unicode hex="2018"/>
  <outline>
    <contour>
      <point x="165" y="470" type="line"/>
      <point x="70" y="470" type="line"/>
      <point x="170" y="700" type="line"/>
      <point x="225" y="700" type="line"/>
    </contour>
  </outline>
</glyph>
<glyph name="quoteright" format="2">
  <advance width="275"/>
  <unicode hex="2019"/>
  <outline>
    <contour>
      <point x="110" y="700" type="line"/>
      <point x="205" y="700" type="line"/>
      <point x="105" y="470" type="line"/>
      <point x="50" y="470" type="line"/>
    </contour>
  </outline>
</glyph>
<glyph name="quotesinglbase" format="2">
  <advance width="275"/>
  <unicode hex="201A"/>
  <outline>
    <contour>
      <point x="120" y="80" type="line"/>
      <point x="215" y="80" type="line"/>
      <point x="115" y="-150" type="line"/>
      <point x="60" y="-150" type="line"/>
    </contour>
  </outline>
</glyph>
<glyph name="quotedblleft" format="2">
  <advance width="475"/>
  <unicode hex="201C"/>
  <outline>
    <contour>
      <point x="165" y="470" type="line"/>
      <point x="70" y="470" type="line"/>
      <point x="170" y="700" type="line"/>
      <point x="225" y="700" type="line"/>
    </contour>
    <contour>
      <point x="365" y="470" type="line"/>
      <point x="270" y="470" type="line"/>
      <point x="370" y="700" type="line"/>
      <point x="425" y="700" type="line"/>
    </contour>
  </outline>
</glyph>
<glyph name="quotedblbase" format="2">
  <advance width="475"/>
  <unicode hex="201E"/>
  <outline>
    <contour>
      <point x="110" y="80" type="line"/>
      <point x="205" y="80" type="line"/>
      <point x="105" y="-150" type="line"/>
      <point x="50" y="-150" type="line"/>
    </contour>
    <contour>
      <point x="310" y="80" type="line"/>
      <point x="405" y="80" type="line"/>
      <point x="305" y="-150" type="line"/>
      <point x="250" y="-150" type="line"/>
    </contour>
  </outline>
</glyph>
<glyph name="daggerdbl" format="2">
  <advance width="570"/>
  <unicode hex="2021"/>
  <outline>
    <contour>
      <point x="90" y="120" type="line"/>
      <point x="480" y="120" type="line"/>
      <point x="480" y="45" type="line"/>
      <point x="90" y="45" type="line"/>
    </contour>
    <contour>
      <point x="90" y="540" type="line"/>
      <point x="480" y="540" type="line"/>
      <point x="480" y="465" type="line"/>
      <point x="90" y="465" type="line"/>
    </contour>
    <contour>
      <point x="245" y="700" type="line"/>
      <point x="325" y="700" type="line"/>
      <point x="325" y="-150" type="line"/>
      <point x="245" y="-150" type="line"/>
    </contour>
  </outline>
</glyph>
<glyph name="ellipsis" format="2">
  <advance width="900"/>
  <unicode hex="2026"/>
  <outline>
    <contour>
      <point x="95" y="40" type="curve" smooth="yes"/>
      <point x="95" y="70"/>
      <point x="120" y="95"/>
      <point x="150" y="95" type="curve" smooth="yes"/>
      <point x="180" y="95"/>
      <point x="205" y="70"/>
      <point x="205" y="40" type="curve" smooth="yes"/>
      <point x="205" y="10"/>
      <point x="180" y="-15"/>
      <point x="150" y="-15" type="curve" smooth="yes"/>
      <point x="120" y="-15"/>
      <point x="95" y="10"/>
    </contour>
    <contour>
      <point x="395" y="40" type="curve" smooth="yes"/>
      <point x="395" y="70"/>
      <point x="420" y="95"/>
      <point x="450" y="95" type="curve" smooth="yes"/>
      <point x="480" y="95"/>
      <point x="505" y="70"/>
      <point x="505" y="40" type="curve" smooth="yes"/>
      <point x="505" y="10"/>
      <point x="480" y="-15"/>
      <point x="450" y="-15" type="curve" smooth="yes"/>
      <point x="420" y="-15"/>
      <point x="395" y="10"/>
    </contour>
    <contour>
      <point x="695" y="40" type="curve" smooth="yes"/>
      <point x="695" y="70"/>
      <point x="720" y="95"/>
      <point x="750" y="95" type="curve" smooth="yes"/>
      <point x="780" y="95"/>
      <point x="805" y="70"/>
      <point x="805" y="40" type="curve" smooth="yes"/>
      <point x="805" y="10"/>
      <point x="780" y="-15"/>
      <point x="750" y="-15" type="curve" smooth="yes"/>
      <point x="720" y="-15"/>
      <point x="695" y="10"/>
    </contour>
  </outline>
</glyph>
<glyph name="uni2079" format="2">
  <advance width="346"/>
  <unicode hex="2079"/>
  <outline>
    <contour>
      <point x="279" y="564" type="curve" smooth="yes"/>
      <point x="279" y="622"/>
      <point x="239" y="662"/>
      <point x="185" y="662" type="curve" smooth="yes"/>
      <point x="131" y="662"/>
      <point x="91" y="622"/>
      <point x="91" y="564" type="curve" smooth="yes"/>
      <point x="91" y="506"/>
      <point x="131" y="465"/>
      <point x="185" y="465" type="curve" smooth="yes"/>
      <point x="239" y="465"/>
      <point x="279" y="506"/>
    </contour>
    <contour>
      <point x="160" y="282" type="line"/>
      <point x="95" y="282" type="line"/>
      <point x="227" y="455" type="line"/>
      <point x="230" y="452" type="line"/>
      <point x="214" y="432"/>
      <point x="193" y="428"/>
      <point x="166" y="428" type="curve" smooth="yes"/>
      <point x="98" y="428"/>
      <point x="42" y="487"/>
      <point x="42" y="564" type="curve" smooth="yes"/>
      <point x="42" y="650"/>
      <point x="104" y="708"/>
      <point x="185" y="708" type="curve" smooth="yes"/>
      <point x="266" y="708"/>
      <point x="328" y="650"/>
      <point x="328" y="564" type="curve" smooth="yes"/>
      <point x="328" y="530"/>
      <point x="317" y="499"/>
      <point x="301" y="477" type="curve" smooth="yes"/>
    </contour>
  </outline>
</glyph>
<glyph name="uni2080" format="2">
  <advance width="372"/>
  <unicode hex="2080"/>
  <outline>
    <contour>
      <point x="81" y="210" type="curve" smooth="yes"/>
      <point x="81" y="112"/>
      <point x="121" y="42"/>
      <point x="186" y="42" type="curve" smooth="yes"/>
      <point x="251" y="42"/>
      <point x="291" y="112"/>
      <point x="291" y="210" type="curve" smooth="yes"/>
      <point x="291" y="308"/>
      <point x="251" y="378"/>
      <point x="186" y="378" type="curve" smooth="yes"/>
      <point x="121" y="378"/>
      <point x="81" y="308"/>
    </contour>
    <contour>
      <point x="30" y="210" type="curve" smooth="yes"/>
      <point x="30" y="335"/>
      <point x="94" y="426"/>
      <point x="186" y="426" type="curve" smooth="yes"/>
      <point x="278" y="426"/>
      <point x="342" y="335"/>
      <point x="342" y="210" type="curve" smooth="yes"/>
      <point x="342" y="85"/>
      <point x="278" y="-6"/>
      <point x="186" y="-6" type="curve" smooth="yes"/>
      <point x="94" y="-6"/>
      <point x="30" y="85"/>
    </contour>
  </outline>
</glyph>
<glyph name="ruble" format="2">
  <advance width="638.0"/>
  <unicode hex="20BD"/>
  <outline>
    <contour>
      <point x="150.0" y="700" type="line"/>
      <point x="235.0" y="700" type="line"/>
      <point x="235.0" y="0" type="line"/>
      <point x="150.0" y="0" type="line"/>
    </contour>
    <contour>
      <point x="192.0" y="620" type="line"/>
      <point x="192.0" y="700" type="line"/>
      <point x="345.0" y="700" type="line" smooth="yes"/>
      <point x="480.0" y="700.0"/>
      <point x="598.0" y="644"/>
      <point x="598.0" y="495" type="curve" smooth="yes"/>
      <point x="598.0" y="346"/>
      <point x="480.0" y="290.0"/>
      <point x="345.0" y="290" type="curve" smooth="yes"/>
      <point x="192.0" y="290" type="line"/>
      <point x="192.0" y="370" type="line"/>
      <point x="345.0" y="370" type="line" smooth="yes"/>
      <point x="450.0" y="370.0"/>
      <point x="518.0" y="409.0"/>
      <point x="518.0" y="495.0" type="curve" smooth="yes"/>
      <point x="518.0" y="581.0"/>
      <point x="450.0" y="620"/>
      <point x="345.0" y="620" type="curve" smooth="yes"/>
    </contour>
    <component base="hyphen" xOffset="215.0" yOffset="-95"/>
    <component base="hyphen" xOffset="25.0" yOffset="90"/>
    <component base="hyphen" xOffset="25.0" yOffset="-95"/>
  </outline>
</glyph>
<glyph name="summation" format="2">
  <advance width="600"/>
  <unicode hex="2211"/>
  <outline>
    <contour>
      <point x="100" y="0" type="line"/>
      <point x="270" y="352" type="line"/>
      <point x="100" y="700" type="line"/>
      <point x="500" y="700" type="line"/>
      <point x="500" y="628" type="line"/>
      <point x="216" y="628" type="line"/>
      <point x="350" y="352" type="line"/>
      <point x="216" y="72" type="line"/>
      <point x="500" y="72" type="line"/>
      <point x="500" y="0" type="line"/>
    </contour>
  </outline>
</glyph>
<glyph name="radical" format="2">
  <advance width="600"/>
  <unicode hex="221A"/>
  <outline>
    <contour>
      <point x="243" y="-200" type="line"/>
      <point x="419" y="682" type="line"/>
      <point x="340" y="628" type="line"/>
      <point x="502" y="628" type="line"/>
      <point x="502" y="700" type="line"/>
      <point x="344" y="700" type="line"/>
      <point x="212" y="-32" type="line"/>
      <point x="255" y="-52" type="line"/>
      <point x="178" y="234" type="line"/>
      <point x="45" y="201" type="line"/>
      <point x="59" y="144" type="line"/>
      <point x="188" y="176" type="line"/>
      <point x="108" y="204" type="line"/>
    </contour>
  </outline>
</glyph>
<glyph name="lozenge" format="2">
  <advance width="600"/>
  <unicode hex="25CA"/>
  <outline>
    <contour>
      <point x="306" y="15" type="line"/>
      <point x="500" y="356" type="line"/>
      <point x="306" y="696" type="line"/>
      <point x="100" y="356" type="line"/>
    </contour>
    <contour>
      <point x="303" y="172" type="line"/>
      <point x="191" y="356" type="line"/>
      <point x="303" y="540" type="line"/>
      <point x="409" y="356" type="line"/>
    </contour>
  </outline>
</glyph>
<glyph name="atilde.alt" format="2">
  <advance width="570"/>
  <outline>
    <contour>
      <point x="425" y="460" type="line"/>
      <point x="500" y="460" type="line"/>
      <point x="500" y="0" type="line"/>
      <point x="425" y="0" type="line"/>
    </contour>
    <contour>
      <point x="35" y="230" type="curve" smooth="yes"/>
      <point x="35" y="379"/>
      <point x="138" y="470"/>
      <point x="263" y="470" type="curve" smooth="yes"/>
      <point x="378" y="470"/>
      <point x="456" y="379"/>
      <point x="456" y="230" type="curve" smooth="yes"/>
      <point x="456" y="81"/>
      <point x="378" y="-10"/>
      <point x="263" y="-10" type="curve" smooth="yes"/>
      <point x="138" y="-10"/>
      <point x="35" y="81"/>
    </contour>
    <contour>
      <point x="116" y="230" type="curve" smooth="yes"/>
      <point x="116" y="124"/>
      <point x="188" y="65"/>
      <point x="273" y="65" type="curve" smooth="yes"/>
      <point x="343" y="65"/>
      <point x="420" y="124"/>
      <point x="420" y="230" type="curve" smooth="yes"/>
      <point x="420" y="336"/>
      <point x="343" y="395"/>
      <point x="273" y="395" type="curve" smooth="yes"/>
      <point x="188" y="395"/>
      <point x="116" y="336"/>
    </contour>
    <contour>
      <point x="118" y="567" type="line"/>
      <point x="128" y="616"/>
      <point x="177" y="649"/>
      <point x="222" y="649" type="curve" smooth="yes"/>
      <point x="287" y="649"/>
      <point x="292" y="602"/>
      <point x="346" y="602" type="curve" smooth="yes"/>
      <point x="365" y="602"/>
      <point x="382" y="618"/>
      <point x="402" y="650" type="curve"/>
      <point x="448" y="607" type="line"/>
      <point x="432" y="570"/>
      <point x="392" y="534"/>
      <point x="342" y="534" type="curve" smooth="yes"/>
      <point x="287" y="534"/>
      <point x="266" y="581"/>
      <point x="221" y="581" type="curve" smooth="yes"/>
      <point x="180" y="581"/>
      <point x="171" y="545"/>
      <point x="171" y="530" type="curve"/>
    </contour>
  </outline>
</glyph>
